<?xml version="1.0" encoding="utf-8" standalone="no"?>
<!DOCTYPE svg PUBLIC "-//W3C//DTD SVG 1.1//EN"
  "http://www.w3.org/Graphics/SVG/1.1/DTD/svg11.dtd">
<svg xmlns:xlink="http://www.w3.org/1999/xlink" width="604.85pt" height="350.91244pt" viewBox="0 0 604.85 350.91244" xmlns="http://www.w3.org/2000/svg" version="1.1">
 <metadata>
  <rdf:RDF xmlns:dc="http://purl.org/dc/elements/1.1/" xmlns:cc="http://creativecommons.org/ns#" xmlns:rdf="http://www.w3.org/1999/02/22-rdf-syntax-ns#">
   <cc:Work>
    <dc:type rdf:resource="http://purl.org/dc/dcmitype/StillImage"/>
    <dc:date>2023-02-02T10:40:05.215523</dc:date>
    <dc:format>image/svg+xml</dc:format>
    <dc:creator>
     <cc:Agent>
      <dc:title>Matplotlib v3.5.2, https://matplotlib.org/</dc:title>
     </cc:Agent>
    </dc:creator>
   </cc:Work>
  </rdf:RDF>
 </metadata>
 <defs>
  <style type="text/css">*{stroke-linejoin: round; stroke-linecap: butt}</style>
 </defs>
 <g id="figure_1">
  <g id="patch_1">
   <path d="M 0 350.91244 
L 604.85 350.91244 
L 604.85 0 
L 0 0 
z
" style="fill: #ffffff"/>
  </g>
  <g id="axes_1">
   <g id="patch_2">
    <path d="M 39.65 140.727273 
L 597.65 140.727273 
L 597.65 7.2 
L 39.65 7.2 
z
" style="fill: #eaeaf2"/>
   </g>
   <g id="matplotlib.axis_1">
    <g id="xtick_1">
     <g id="line2d_1">
      <path d="M 64.52241 140.727273 
L 64.52241 7.2 
" clip-path="url(#pe8591f30ae)" style="fill: none; stroke: #ffffff; stroke-linecap: round"/>
     </g>
     <g id="line2d_2"/>
    </g>
    <g id="xtick_2">
     <g id="line2d_3">
      <path d="M 124.288242 140.727273 
L 124.288242 7.2 
" clip-path="url(#pe8591f30ae)" style="fill: none; stroke: #ffffff; stroke-linecap: round"/>
     </g>
     <g id="line2d_4"/>
    </g>
    <g id="xtick_3">
     <g id="line2d_5">
      <path d="M 184.054073 140.727273 
L 184.054073 7.2 
" clip-path="url(#pe8591f30ae)" style="fill: none; stroke: #ffffff; stroke-linecap: round"/>
     </g>
     <g id="line2d_6"/>
    </g>
    <g id="xtick_4">
     <g id="line2d_7">
      <path d="M 243.983646 140.727273 
L 243.983646 7.2 
" clip-path="url(#pe8591f30ae)" style="fill: none; stroke: #ffffff; stroke-linecap: round"/>
     </g>
     <g id="line2d_8"/>
    </g>
    <g id="xtick_5">
     <g id="line2d_9">
      <path d="M 303.749478 140.727273 
L 303.749478 7.2 
" clip-path="url(#pe8591f30ae)" style="fill: none; stroke: #ffffff; stroke-linecap: round"/>
     </g>
     <g id="line2d_10"/>
    </g>
    <g id="xtick_6">
     <g id="line2d_11">
      <path d="M 363.515309 140.727273 
L 363.515309 7.2 
" clip-path="url(#pe8591f30ae)" style="fill: none; stroke: #ffffff; stroke-linecap: round"/>
     </g>
     <g id="line2d_12"/>
    </g>
    <g id="xtick_7">
     <g id="line2d_13">
      <path d="M 423.28114 140.727273 
L 423.28114 7.2 
" clip-path="url(#pe8591f30ae)" style="fill: none; stroke: #ffffff; stroke-linecap: round"/>
     </g>
     <g id="line2d_14"/>
    </g>
    <g id="xtick_8">
     <g id="line2d_15">
      <path d="M 483.210714 140.727273 
L 483.210714 7.2 
" clip-path="url(#pe8591f30ae)" style="fill: none; stroke: #ffffff; stroke-linecap: round"/>
     </g>
     <g id="line2d_16"/>
    </g>
    <g id="xtick_9">
     <g id="line2d_17">
      <path d="M 542.976545 140.727273 
L 542.976545 7.2 
" clip-path="url(#pe8591f30ae)" style="fill: none; stroke: #ffffff; stroke-linecap: round"/>
     </g>
     <g id="line2d_18"/>
    </g>
    <g id="xtick_10">
     <g id="line2d_19"/>
    </g>
    <g id="xtick_11">
     <g id="line2d_20"/>
    </g>
    <g id="xtick_12">
     <g id="line2d_21"/>
    </g>
    <g id="xtick_13">
     <g id="line2d_22"/>
    </g>
    <g id="xtick_14">
     <g id="line2d_23"/>
    </g>
    <g id="xtick_15">
     <g id="line2d_24"/>
    </g>
    <g id="xtick_16">
     <g id="line2d_25"/>
    </g>
   </g>
   <g id="matplotlib.axis_2">
    <g id="ytick_1">
     <g id="line2d_26">
      <path d="M 39.65 136.139214 
L 597.65 136.139214 
" clip-path="url(#pe8591f30ae)" style="fill: none; stroke: #ffffff; stroke-linecap: round"/>
     </g>
     <g id="line2d_27"/>
     <g id="text_1">
      <!-- 1000 -->
      <g style="fill: #262626" transform="translate(7.2 139.938433)scale(0.1 -0.1)">
       <defs>
        <path id="DejaVuSerif-31" d="M 909 0 
L 909 331 
L 1722 331 
L 1722 4213 
L 781 3603 
L 781 4013 
L 1919 4750 
L 2350 4750 
L 2350 331 
L 3163 331 
L 3163 0 
L 909 0 
z
" transform="scale(0.015625)"/>
        <path id="DejaVuSerif-30" d="M 2034 219 
Q 2513 219 2750 744 
Q 2988 1269 2988 2328 
Q 2988 3391 2750 3916 
Q 2513 4441 2034 4441 
Q 1556 4441 1318 3916 
Q 1081 3391 1081 2328 
Q 1081 1269 1318 744 
Q 1556 219 2034 219 
z
M 2034 -91 
Q 1275 -91 848 546 
Q 422 1184 422 2328 
Q 422 3475 848 4112 
Q 1275 4750 2034 4750 
Q 2797 4750 3222 4112 
Q 3647 3475 3647 2328 
Q 3647 1184 3222 546 
Q 2797 -91 2034 -91 
z
" transform="scale(0.015625)"/>
       </defs>
       <use xlink:href="#DejaVuSerif-31"/>
       <use xlink:href="#DejaVuSerif-30" x="63.623047"/>
       <use xlink:href="#DejaVuSerif-30" x="127.246094"/>
       <use xlink:href="#DejaVuSerif-30" x="190.869141"/>
      </g>
     </g>
    </g>
    <g id="ytick_2">
     <g id="line2d_28">
      <path d="M 39.65 103.336672 
L 597.65 103.336672 
" clip-path="url(#pe8591f30ae)" style="fill: none; stroke: #ffffff; stroke-linecap: round"/>
     </g>
     <g id="line2d_29"/>
     <g id="text_2">
      <!-- 1500 -->
      <g style="fill: #262626" transform="translate(7.2 107.135891)scale(0.1 -0.1)">
       <defs>
        <path id="DejaVuSerif-35" d="M 3219 4666 
L 3219 4153 
L 1081 4153 
L 1081 2816 
Q 1244 2928 1461 2984 
Q 1678 3041 1947 3041 
Q 2703 3041 3140 2622 
Q 3578 2203 3578 1478 
Q 3578 738 3136 323 
Q 2694 -91 1894 -91 
Q 1572 -91 1234 -12 
Q 897 66 544 225 
L 544 1131 
L 897 1131 
Q 925 688 1179 453 
Q 1434 219 1894 219 
Q 2388 219 2653 544 
Q 2919 869 2919 1478 
Q 2919 2084 2655 2407 
Q 2391 2731 1894 2731 
Q 1613 2731 1398 2631 
Q 1184 2531 1019 2322 
L 750 2322 
L 750 4666 
L 3219 4666 
z
" transform="scale(0.015625)"/>
       </defs>
       <use xlink:href="#DejaVuSerif-31"/>
       <use xlink:href="#DejaVuSerif-35" x="63.623047"/>
       <use xlink:href="#DejaVuSerif-30" x="127.246094"/>
       <use xlink:href="#DejaVuSerif-30" x="190.869141"/>
      </g>
     </g>
    </g>
    <g id="ytick_3">
     <g id="line2d_30">
      <path d="M 39.65 70.534131 
L 597.65 70.534131 
" clip-path="url(#pe8591f30ae)" style="fill: none; stroke: #ffffff; stroke-linecap: round"/>
     </g>
     <g id="line2d_31"/>
     <g id="text_3">
      <!-- 2000 -->
      <g style="fill: #262626" transform="translate(7.2 74.333349)scale(0.1 -0.1)">
       <defs>
        <path id="DejaVuSerif-32" d="M 819 3553 
L 469 3553 
L 469 4384 
Q 803 4563 1142 4656 
Q 1481 4750 1806 4750 
Q 2534 4750 2956 4397 
Q 3378 4044 3378 3438 
Q 3378 2753 2422 1800 
Q 2347 1728 2309 1691 
L 1131 513 
L 3078 513 
L 3078 1088 
L 3444 1088 
L 3444 0 
L 434 0 
L 434 341 
L 1850 1753 
Q 2319 2222 2519 2614 
Q 2719 3006 2719 3438 
Q 2719 3909 2473 4175 
Q 2228 4441 1797 4441 
Q 1350 4441 1106 4219 
Q 863 3997 819 3553 
z
" transform="scale(0.015625)"/>
       </defs>
       <use xlink:href="#DejaVuSerif-32"/>
       <use xlink:href="#DejaVuSerif-30" x="63.623047"/>
       <use xlink:href="#DejaVuSerif-30" x="127.246094"/>
       <use xlink:href="#DejaVuSerif-30" x="190.869141"/>
      </g>
     </g>
    </g>
    <g id="ytick_4">
     <g id="line2d_32">
      <path d="M 39.65 37.731589 
L 597.65 37.731589 
" clip-path="url(#pe8591f30ae)" style="fill: none; stroke: #ffffff; stroke-linecap: round"/>
     </g>
     <g id="line2d_33"/>
     <g id="text_4">
      <!-- 2500 -->
      <g style="fill: #262626" transform="translate(7.2 41.530808)scale(0.1 -0.1)">
       <use xlink:href="#DejaVuSerif-32"/>
       <use xlink:href="#DejaVuSerif-35" x="63.623047"/>
       <use xlink:href="#DejaVuSerif-30" x="127.246094"/>
       <use xlink:href="#DejaVuSerif-30" x="190.869141"/>
      </g>
     </g>
    </g>
   </g>
   <g id="line2d_34">
    <path d="M 65.013636 127.414394 
L 65.668604 126.627789 
L 66.15983 126.496579 
L 66.323572 127.20249 
L 66.487314 126.581865 
L 66.651056 126.399483 
L 66.814798 127.214955 
L 67.469766 126.283362 
L 67.633508 127.083088 
L 67.960992 130.119292 
L 68.452218 129.789954 
L 68.61596 130.092393 
L 68.779702 129.742718 
L 69.107186 131.292967 
L 69.598412 130.287897 
L 69.762154 129.360897 
L 69.925896 129.757152 
L 70.089638 131.998877 
L 70.25338 131.796814 
L 70.744606 132.416782 
L 70.908348 131.512744 
L 71.07209 131.66954 
L 71.235833 130.991183 
L 71.399575 131.185374 
L 72.545769 128.977107 
L 73.036995 129.053209 
L 73.200737 129.932973 
L 73.364479 129.234935 
L 73.528221 129.385827 
L 73.691963 129.284139 
L 74.346931 128.377477 
L 74.510673 128.345986 
L 74.674415 128.071757 
L 74.838157 127.039789 
L 75.329383 127.05291 
L 75.493125 126.92498 
L 75.820609 126.282706 
L 76.475577 126.264993 
L 76.803061 125.234993 
L 76.966803 125.259923 
L 77.130545 125.648961 
L 77.621771 125.261235 
L 77.785513 124.712777 
L 78.112997 125.266484 
L 78.276739 125.210063 
L 78.931707 124.771821 
L 79.095449 125.023745 
L 79.259191 124.454949 
L 80.077901 123.710987 
L 80.241643 124.169567 
L 80.405385 123.907802 
L 80.569127 123.387554 
L 81.224095 123.195331 
L 81.387837 122.319503 
L 81.551579 122.252586 
L 81.715321 123.534509 
L 82.206547 123.180898 
L 82.370289 122.547809 
L 82.534031 122.628503 
L 82.697773 122.449401 
L 82.861515 121.884542 
L 83.352741 122.227656 
L 83.516483 124.086904 
L 83.680225 123.585025 
L 83.843967 122.573395 
L 84.007709 123.891401 
L 84.498935 122.86993 
L 84.662677 124.750172 
L 84.826419 125.255331 
L 85.153903 128.864922 
L 85.645129 125.660114 
L 85.808871 125.918598 
L 85.972613 124.876789 
L 86.300097 127.237916 
L 86.791323 127.155254 
L 87.118807 128.591349 
L 87.282549 131.442546 
L 87.446291 130.386304 
L 87.937517 131.3074 
L 88.101259 131.28247 
L 88.265001 131.681349 
L 88.428743 129.377954 
L 88.592485 130.273464 
L 89.247453 131.500279 
L 89.411195 129.684986 
L 89.574937 129.393043 
L 89.738679 131.882756 
L 90.229905 132.828125 
L 90.393647 132.071699 
L 90.557389 132.485667 
L 90.721131 130.442069 
L 90.884873 130.129788 
L 91.376099 130.25903 
L 91.539841 128.57954 
L 91.703583 128.620215 
L 92.031067 128.429961 
L 92.522293 128.712719 
L 92.686035 129.886394 
L 92.849777 130.100922 
L 93.013519 131.304775 
L 93.177261 131.103368 
L 93.668487 131.247043 
L 93.832229 133.43366 
L 94.159713 134.343603 
L 94.323455 134.657851 
L 94.978423 134.298335 
L 95.142165 132.185196 
L 95.469649 131.024642 
L 95.960875 130.972814 
L 96.124617 129.884425 
L 96.452101 129.809636 
L 96.615843 131.882756 
L 97.107069 131.464852 
L 97.270811 130.662502 
L 97.434553 131.573756 
L 97.762037 129.404196 
L 98.253263 128.593973 
L 98.417005 128.670731 
L 98.744489 129.47833 
L 98.908231 129.473738 
L 99.399457 127.882158 
L 99.563199 128.236426 
L 99.726941 127.791623 
L 99.890683 127.885438 
L 100.054425 128.159012 
L 100.545651 127.75554 
L 100.709393 128.197063 
L 100.873135 130.269527 
L 101.200619 130.940011 
L 101.691845 130.931483 
L 101.855587 130.06812 
L 102.019329 129.961839 
L 102.183071 131.177502 
L 102.346813 131.435986 
L 102.838039 131.720056 
L 103.001781 132.736278 
L 103.165523 132.509285 
L 103.329265 133.041342 
L 103.493007 131.901782 
L 103.984233 132.929813 
L 104.147975 132.902915 
L 104.311717 130.871782 
L 104.639201 129.282827 
L 105.294169 130.114043 
L 105.785395 128.952177 
L 106.276621 128.141954 
L 106.440363 128.194438 
L 106.604105 127.933986 
L 106.931589 127.899872 
L 107.422815 126.776713 
L 107.750299 127.329763 
L 107.914041 127.949731 
L 108.077783 126.385706 
L 108.569009 126.812795 
L 108.732751 126.449343 
L 109.060235 126.875776 
L 109.223977 126.545127 
L 109.715203 127.149349 
L 109.878945 125.593197 
L 110.206429 125.769675 
L 110.370171 125.304535 
L 110.861397 125.293382 
L 111.025139 125.001439 
L 111.188881 124.454949 
L 111.352623 124.736394 
L 112.007591 124.021299 
L 112.171333 125.255331 
L 112.335075 124.450356 
L 112.662559 124.128235 
L 113.317527 123.960286 
L 113.481269 124.169567 
L 113.808753 124.116426 
L 114.299979 124.042949 
L 114.627463 123.152032 
L 114.791205 121.636554 
L 114.954947 121.322306 
L 115.446173 121.492879 
L 115.609915 122.139089 
L 115.773657 121.790726 
L 115.937399 122.129905 
L 116.101141 123.070025 
L 116.592368 123.165809 
L 116.75611 124.439203 
L 116.919852 124.422802 
L 117.083594 123.23535 
L 117.247336 123.035911 
L 117.738562 123.159904 
L 117.902304 124.282407 
L 118.066046 123.126446 
L 118.39353 123.713611 
L 118.884756 123.821204 
L 119.048498 124.294216 
L 119.375982 121.60572 
L 119.539724 121.397096 
L 120.194692 121.460077 
L 120.685918 120.367752 
L 121.340886 120.289682 
L 121.504628 120.70693 
L 121.66837 120.205707 
L 122.323338 119.92951 
L 122.650822 119.157994 
L 122.814564 119.293797 
L 123.633274 119.179644 
L 123.797016 119.096325 
L 124.1245 119.23672 
L 124.615726 118.30316 
L 124.779468 118.41272 
L 124.94321 117.995472 
L 125.270694 118.327434 
L 125.76192 118.442243 
L 125.925662 118.131931 
L 126.089404 117.378784 
L 126.253146 117.523116 
L 126.416888 116.901179 
L 127.071856 116.784402 
L 127.235598 117.643829 
L 127.39934 117.752733 
L 128.054308 117.058632 
L 128.21805 117.036326 
L 128.545534 116.487867 
L 128.709276 118.009905 
L 129.200502 117.368288 
L 129.364244 115.959746 
L 129.527986 116.193301 
L 130.510438 114.845772 
L 130.67418 115.087855 
L 130.837922 115.022906 
L 131.001664 114.545301 
L 131.49289 114.337333 
L 131.656632 114.620091 
L 131.984116 113.805275 
L 132.147858 113.636014 
L 133.13031 116.057498 
L 133.294052 115.15346 
L 133.785278 114.671919 
L 133.94902 116.042409 
L 134.112762 115.903982 
L 134.276504 114.4259 
L 134.440246 115.070141 
L 134.931472 115.79311 
L 135.095214 115.026186 
L 135.258956 115.144275 
L 135.422698 116.778498 
L 135.58644 116.176899 
L 136.077666 116.694523 
L 136.241408 117.647109 
L 136.40515 119.28658 
L 136.732634 117.822275 
L 137.22386 116.563969 
L 137.387602 116.866409 
L 137.551344 116.619078 
L 137.878828 115.552339 
L 138.370054 115.789173 
L 138.697538 114.603689 
L 138.86128 114.76311 
L 139.025022 114.331428 
L 139.67999 114.316995 
L 139.843732 114.126084 
L 140.007474 114.259263 
L 140.171216 114.609594 
L 140.662442 114.852989 
L 140.826184 115.528721 
L 141.153668 115.505103 
L 141.31741 115.166581 
L 141.808636 116.120479 
L 141.972378 115.629753 
L 142.299862 114.005371 
L 142.95483 114.14511 
L 143.282314 112.80611 
L 143.609798 112.28455 
L 144.101024 112.441346 
L 144.264766 112.743129 
L 144.59225 114.154951 
L 144.755992 113.820365 
L 145.247218 113.42083 
L 145.41096 112.707702 
L 145.574702 113.697027 
L 145.738444 113.266002 
L 145.902186 113.979785 
L 146.557154 114.556454 
L 146.720896 113.788874 
L 146.884638 113.597307 
L 147.04838 114.275008 
L 147.539606 115.318129 
L 147.703348 115.389638 
L 148.849542 113.492339 
L 149.013284 115.503135 
L 149.177026 115.608759 
L 149.340768 116.447192 
L 150.159478 117.798657 
L 150.32322 117.179345 
L 150.486962 118.361549 
L 150.978188 118.305784 
L 151.14193 117.253479 
L 151.305672 118.726313 
L 152.124382 117.877383 
L 152.288124 116.7516 
L 152.77935 118.527529 
L 153.270576 117.76323 
L 153.925544 113.855135 
L 154.580512 113.972568 
L 154.744254 113.884658 
L 154.907996 112.966186 
L 155.562964 115.179046 
L 155.726706 115.562836 
L 155.890448 115.295167 
L 156.05419 115.875772 
L 156.217932 115.398823 
L 156.709158 116.100797 
L 156.8729 114.704065 
L 157.036642 114.762454 
L 157.200384 113.584186 
L 157.364126 113.504148 
L 157.855352 114.002091 
L 158.019094 114.362263 
L 158.182836 116.13688 
L 158.346578 116.413734 
L 158.51032 116.96416 
L 159.001546 117.314491 
L 159.165288 119.472243 
L 159.32903 119.059587 
L 159.492772 123.013605 
L 159.656514 123.058872 
L 160.14774 128.302031 
L 160.311482 124.820369 
L 160.475224 128.216744 
L 160.638966 124.813152 
L 160.802708 124.408369 
L 161.293935 122.723631 
L 161.457677 123.493178 
L 161.621419 123.419044 
L 161.948903 128.035018 
L 162.440129 128.015993 
L 162.767613 124.487751 
L 162.931355 125.690292 
L 163.095097 124.540235 
L 163.586323 122.356898 
L 163.750065 122.17058 
L 163.913807 121.778917 
L 164.077549 122.728223 
L 164.241291 124.725898 
L 164.896259 125.29863 
L 165.060001 123.108732 
L 165.223743 123.943229 
L 165.387485 126.020942 
L 165.878711 125.493477 
L 166.206195 123.760847 
L 166.533679 121.96786 
L 167.188647 122.881083 
L 167.516131 127.639419 
L 167.679873 127.188712 
L 168.334841 124.633394 
L 168.498583 126.22891 
L 168.662325 125.616159 
L 168.826067 127.517394 
L 169.317293 129.629222 
L 169.808519 125.316343 
L 169.972261 125.940248 
L 170.463487 123.353439 
L 170.627229 123.310796 
L 170.790971 122.54256 
L 170.954713 122.778083 
L 171.118455 121.405624 
L 171.609681 122.961777 
L 171.773423 121.35314 
L 171.937165 122.370019 
L 172.100907 122.008535 
L 172.264649 120.508803 
L 172.755875 119.463058 
L 172.919617 121.11237 
L 173.083359 120.262784 
L 173.247101 117.468663 
L 173.410843 117.435861 
L 173.902069 119.521446 
L 174.065811 121.818936 
L 174.393295 119.006446 
L 174.557037 119.526039 
L 175.048263 119.008415 
L 175.212005 118.037459 
L 175.375747 121.109089 
L 175.539489 120.414332 
L 175.703231 118.829313 
L 176.194457 119.621166 
L 176.358199 119.225567 
L 176.685683 121.959987 
L 176.849425 121.991478 
L 177.504393 123.802834 
L 177.668135 125.524968 
L 177.995619 125.729655 
L 178.486845 123.506955 
L 178.650587 123.333758 
L 178.814329 119.937383 
L 179.141813 120.113204 
L 179.796781 119.182268 
L 179.960523 119.015631 
L 180.124265 120.764663 
L 180.288007 119.397453 
L 180.942975 121.330179 
L 181.106717 122.242745 
L 181.434201 121.728401 
L 181.925427 122.66721 
L 182.089169 120.308707 
L 182.252911 120.149943 
L 182.580395 118.732217 
L 183.235363 118.725657 
L 183.399105 119.761561 
L 183.562847 118.883765 
L 183.726589 119.239345 
L 184.381557 117.96267 
L 184.545299 117.946924 
L 184.709041 117.700249 
L 184.872783 117.913466 
L 185.364009 117.723867 
L 185.527751 116.977281 
L 185.691493 116.951039 
L 185.855235 116.752912 
L 186.018977 117.17344 
L 186.673945 116.872969 
L 187.001429 115.506415 
L 187.165171 115.448683 
L 187.820139 115.496575 
L 187.983881 114.748677 
L 188.147623 115.248587 
L 188.311365 115.386358 
L 188.966333 115.64353 
L 189.130075 114.877263 
L 189.293817 114.782135 
L 189.457559 113.512021 
L 189.948785 113.549416 
L 190.440011 113.049505 
L 190.603753 113.660288 
L 191.094979 113.061314 
L 191.258721 113.144632 
L 191.422463 113.621581 
L 191.586205 112.64997 
L 191.749947 112.44069 
L 192.404915 112.376397 
L 192.568657 112.6749 
L 192.896141 112.144811 
L 193.387367 112.023441 
L 193.551109 111.722314 
L 193.714851 112.148747 
L 193.878593 111.597008 
L 194.042335 111.889607 
L 194.533561 112.237314 
L 194.697303 113.613053 
L 195.188529 111.808257 
L 195.679755 111.793824 
L 195.843497 110.162881 
L 196.007239 110.272442 
L 196.170981 109.726607 
L 196.825949 109.257531 
L 197.153433 109.707582 
L 197.317175 110.370849 
L 197.480917 110.086779 
L 197.972143 108.814041 
L 198.463369 109.681996 
L 198.627111 109.341506 
L 199.118337 108.64806 
L 199.282079 109.019385 
L 199.445821 109.96541 
L 199.609563 110.023142 
L 200.264531 111.064951 
L 200.428273 112.613887 
L 200.592015 111.949964 
L 200.755757 110.712652 
L 200.919499 111.848276 
L 201.410725 111.893543 
L 201.574467 110.50206 
L 201.901951 111.411346 
L 202.065693 111.305722 
L 202.556919 112.066085 
L 202.720661 111.736091 
L 203.048145 109.898493 
L 203.211887 109.676748 
L 203.703113 110.034295 
L 203.866855 109.515359 
L 204.030597 109.745633 
L 204.194339 110.450232 
L 204.358081 111.924378 
L 204.849307 111.892887 
L 205.176791 112.876964 
L 205.340533 112.65325 
L 205.995501 113.941734 
L 206.322986 114.830683 
L 206.65047 116.771281 
L 207.141696 115.408664 
L 207.46918 115.220377 
L 207.632922 115.100976 
L 207.796664 115.288606 
L 208.451632 114.330772 
L 208.615374 115.583829 
L 208.779116 115.779988 
L 208.942858 117.898377 
L 209.434084 117.889192 
L 209.597826 117.408963 
L 209.761568 115.465084 
L 209.92531 115.474269 
L 210.089052 114.774263 
L 210.580278 115.871836 
L 210.74402 114.871358 
L 210.907762 115.481485 
L 211.235246 113.647167 
L 211.726472 113.519893 
L 211.890214 112.653906 
L 212.053956 112.804142 
L 212.217698 114.784103 
L 212.38144 114.160199 
L 212.872666 115.557587 
L 213.036408 115.146243 
L 213.20015 114.368167 
L 213.363892 114.552517 
L 213.527634 112.379677 
L 214.01886 112.1599 
L 214.182602 111.601601 
L 214.510086 112.024097 
L 214.673828 112.870403 
L 215.165054 113.016046 
L 215.328796 113.737046 
L 215.492538 113.738358 
L 215.65628 114.177256 
L 215.820022 112.732632 
L 216.311248 112.938632 
L 216.638732 111.682951 
L 216.802474 111.438244 
L 216.966216 112.346874 
L 217.457442 113.14332 
L 217.621184 113.944358 
L 217.784926 113.971912 
L 218.11241 110.81762 
L 218.603636 110.861575 
L 219.094862 112.193359 
L 219.258604 110.488282 
L 219.74983 110.275722 
L 219.913572 109.808614 
L 220.241056 109.713486 
L 220.404798 109.512079 
L 221.059766 109.639353 
L 221.223508 109.534385 
L 221.38725 108.879646 
L 221.550992 108.705792 
L 222.042218 108.707761 
L 222.20596 109.033162 
L 222.369702 109.012168 
L 222.533444 109.760722 
L 222.697186 109.166996 
L 223.515896 109.208983 
L 223.679638 109.931295 
L 223.84338 109.465499 
L 224.66209 109.671499 
L 224.825832 107.789945 
L 224.989574 107.409436 
L 225.4808 107.989385 
L 225.808284 107.498659 
L 225.972026 105.961532 
L 226.135768 105.582334 
L 226.790736 106.005487 
L 226.954478 105.89199 
L 227.773188 106.164907 
L 228.100672 107.711219 
L 228.264414 106.803901 
L 228.428156 107.229022 
L 229.083124 106.895748 
L 229.246866 106.551977 
L 229.410608 105.869029 
L 229.57435 105.899863 
L 230.065576 106.231169 
L 230.39306 107.761079 
L 230.556802 107.74271 
L 230.720544 108.021531 
L 231.21177 107.264449 
L 231.539254 105.901175 
L 231.702996 106.135385 
L 231.866738 107.719748 
L 232.357964 107.678417 
L 232.521706 109.037098 
L 232.685448 109.323136 
L 232.84919 109.046283 
L 233.012932 109.113856 
L 233.831642 109.099423 
L 233.995384 108.087136 
L 234.159126 108.965588 
L 234.650352 108.764837 
L 234.814094 108.034652 
L 235.141578 111.372639 
L 235.30532 111.219123 
L 235.796546 111.207314 
L 235.960288 111.568142 
L 236.12403 112.817263 
L 236.287772 112.95897 
L 236.451514 112.529257 
L 236.94274 110.757263 
L 237.106482 110.696907 
L 237.270224 110.485658 
L 237.597708 109.296894 
L 238.088934 109.484525 
L 238.252676 109.966722 
L 238.58016 108.85078 
L 238.743902 108.83569 
L 239.39887 109.434665 
L 239.562612 109.288365 
L 239.890096 108.711697 
L 240.381322 108.680206 
L 240.545064 108.070735 
L 240.708806 108.028748 
L 241.03629 109.006264 
L 241.527516 107.90541 
L 241.691258 106.827519 
L 241.855 107.547863 
L 242.018742 107.030895 
L 242.182484 107.919187 
L 242.67371 108.148149 
L 243.164936 108.709729 
L 243.328678 109.73776 
L 243.819904 108.178984 
L 244.147388 105.802111 
L 244.31113 106.002207 
L 244.474872 105.536411 
L 244.966098 105.836882 
L 245.12984 106.14785 
L 245.293582 105.893958 
L 245.457324 105.165742 
L 246.439776 105.132283 
L 246.76726 104.256456 
L 247.749712 103.676507 
L 247.913454 103.142481 
L 248.40468 103.324863 
L 248.568422 102.822328 
L 248.895906 103.460666 
L 249.059648 102.472653 
L 249.550874 103.618118 
L 249.714616 102.595991 
L 249.878358 102.541539 
L 250.0421 102.720641 
L 250.205842 102.160373 
L 250.697068 102.22073 
L 251.024552 102.002921 
L 251.188295 101.934036 
L 251.352037 102.038348 
L 252.007005 101.306851 
L 252.334489 103.177908 
L 252.498231 102.313233 
L 252.989457 104.133774 
L 253.153199 103.537424 
L 253.316941 102.287647 
L 253.480683 102.37359 
L 253.644425 102.14266 
L 254.135651 101.683424 
L 254.299393 100.726246 
L 254.626877 100.432991 
L 254.790619 99.979004 
L 255.281845 99.648355 
L 255.445587 99.893718 
L 255.609329 99.759883 
L 255.773071 99.188463 
L 256.591781 100.165323 
L 256.755523 99.484998 
L 256.919265 100.33196 
L 257.083007 99.604399 
L 257.574233 99.945546 
L 257.737975 99.153036 
L 257.901717 99.213393 
L 258.065459 98.797457 
L 258.720427 99.258004 
L 258.884169 98.727915 
L 259.047911 99.814335 
L 259.211653 99.401679 
L 259.375395 99.841233 
L 260.030363 98.835508 
L 260.194105 97.581138 
L 260.357847 97.211126 
L 260.521589 97.507661 
L 261.012815 99.90159 
L 261.176557 98.444501 
L 261.504041 100.606845 
L 261.667783 99.711991 
L 262.159009 99.236355 
L 262.322751 98.168304 
L 262.486493 98.167648 
L 262.650235 97.749743 
L 262.813977 97.94131 
L 263.468945 96.935584 
L 263.632687 97.911132 
L 263.960171 95.830139 
L 264.451397 95.628075 
L 264.778881 94.631534 
L 264.942623 95.026476 
L 265.106365 94.565273 
L 265.597591 94.56068 
L 265.925075 92.919897 
L 266.088817 93.465075 
L 266.252559 92.349789 
L 266.743785 92.427203 
L 266.907527 92.238916 
L 267.235011 93.462451 
L 267.398753 93.522152 
L 268.053721 92.835923 
L 268.217463 93.603502 
L 268.381205 93.206591 
L 268.544947 94.759464 
L 269.036173 94.124407 
L 269.199915 94.717476 
L 269.363657 96.192279 
L 269.691141 93.930215 
L 270.182367 93.96761 
L 270.509851 95.954788 
L 270.673593 94.390763 
L 270.837335 95.02254 
L 271.328561 94.214942 
L 271.492303 93.377165 
L 271.656045 94.878209 
L 271.819787 97.55096 
L 271.983529 97.272794 
L 272.474755 98.541597 
L 272.965981 95.910177 
L 273.129723 96.364164 
L 273.620949 95.794712 
L 273.784691 95.852444 
L 273.948433 95.76519 
L 274.275917 94.684018 
L 274.767143 94.121782 
L 274.930885 93.343706 
L 275.094627 93.324024 
L 275.258369 91.854471 
L 275.422111 91.515292 
L 275.913337 91.363745 
L 276.077079 91.77312 
L 276.240821 91.468057 
L 276.568305 90.734592 
L 277.059531 90.50891 
L 277.223273 90.71491 
L 277.387015 91.138063 
L 277.714499 90.763458 
L 278.205725 91.178082 
L 278.533209 91.15184 
L 278.696951 89.764949 
L 278.860693 89.581254 
L 279.351919 89.747235 
L 279.679403 90.812006 
L 279.843145 90.38098 
L 280.006887 90.778547 
L 280.498113 90.906477 
L 280.661855 90.598789 
L 280.825597 91.174146 
L 280.989339 92.75326 
L 281.153081 93.113432 
L 281.644307 93.754394 
L 281.808049 93.341738 
L 281.971791 93.968266 
L 282.299275 92.610241 
L 282.790501 93.051107 
L 282.954243 94.776521 
L 283.281727 94.272018 
L 283.445469 94.613164 
L 284.100437 94.16705 
L 284.264179 93.293846 
L 284.591663 93.156732 
L 285.082889 92.071623 
L 285.410373 90.928783 
L 285.574115 91.303388 
L 285.737857 91.003573 
L 286.229083 90.373108 
L 286.392825 89.903375 
L 286.556567 88.541414 
L 286.720309 88.750038 
L 286.884051 89.565509 
L 287.539019 90.384917 
L 287.702761 90.68998 
L 287.866503 90.30291 
L 288.030245 90.756898 
L 288.521471 91.426069 
L 288.685213 90.543681 
L 288.848955 90.617815 
L 289.012697 91.615668 
L 289.176439 90.838904 
L 289.667665 91.782305 
L 289.831407 93.138362 
L 289.995149 93.076037 
L 290.158891 90.703757 
L 290.322633 90.005719 
L 290.813859 89.55042 
L 290.977601 90.34293 
L 291.305085 88.040847 
L 291.468827 87.296229 
L 291.960053 87.285733 
L 292.123795 86.629026 
L 292.287537 87.172892 
L 292.615021 86.29444 
L 293.106247 86.140924 
L 293.269989 85.49537 
L 293.597473 86.506344 
L 293.761215 86.171758 
L 294.252441 85.759102 
L 294.416183 86.084504 
L 294.579925 85.591153 
L 294.743667 87.122376 
L 294.907409 85.583281 
L 295.398635 85.499306 
L 295.562377 85.774848 
L 295.889861 84.270523 
L 296.053603 83.774549 
L 296.708572 84.450937 
L 296.872314 84.87737 
L 297.199798 83.342867 
L 297.854766 83.474733 
L 298.018508 83.180823 
L 298.345992 83.273982 
L 298.837218 83.596103 
L 299.328444 84.637255 
L 299.492186 83.321217 
L 299.983412 83.106033 
L 300.147154 83.483262 
L 300.474638 85.262472 
L 300.63838 85.274281 
L 301.129606 84.538192 
L 301.293348 84.901644 
L 301.45709 82.956453 
L 301.620832 83.025339 
L 301.784574 82.453262 
L 302.439542 81.469186 
L 302.767026 80.898422 
L 303.421994 80.960747 
L 303.585736 80.482485 
L 303.91322 81.557097 
L 304.076962 81.597116 
L 304.568188 81.898899 
L 304.73193 81.170027 
L 305.059414 81.153625 
L 305.223156 80.87546 
L 305.714382 82.39553 
L 306.041866 80.481173 
L 306.205608 80.64453 
L 306.36935 81.116231 
L 307.18806 80.712103 
L 307.351802 81.788027 
L 307.515544 84.292173 
L 308.00677 84.864905 
L 308.170512 84.147185 
L 308.334254 85.347758 
L 308.497996 84.036313 
L 309.152964 87.467459 
L 309.316706 86.594255 
L 309.480448 86.827809 
L 309.807932 83.85065 
L 310.299158 83.665644 
L 310.4629 82.359447 
L 310.626642 82.391593 
L 310.954126 81.120823 
L 311.609094 80.981084 
L 311.772836 81.769001 
L 311.936578 81.045377 
L 312.10032 81.276963 
L 312.591546 80.531689 
L 312.755288 80.695046 
L 312.91903 80.692422 
L 313.246514 79.754925 
L 313.73774 80.655027 
L 313.901482 78.806276 
L 314.065224 78.812836 
L 314.392708 78.535327 
L 314.883934 78.592403 
L 315.047676 79.218276 
L 315.211418 79.180881 
L 315.37516 80.615008 
L 315.538902 80.95681 
L 316.030128 79.7956 
L 316.19387 78.91518 
L 316.357612 79.668326 
L 316.521354 78.930925 
L 316.685096 79.291097 
L 317.176322 79.886791 
L 317.340064 79.350142 
L 317.503806 80.206944 
L 317.667548 80.437874 
L 317.83129 79.874982 
L 318.322516 78.909276 
L 318.65 77.691645 
L 318.813742 77.831384 
L 318.977484 79.384912 
L 319.46871 80.700294 
L 319.632452 80.246307 
L 319.796194 78.919772 
L 320.123678 82.625804 
L 320.614904 81.646976 
L 321.10613 79.400658 
L 321.761098 78.938798 
L 321.92484 78.436263 
L 322.088582 78.70918 
L 322.252324 78.497932 
L 322.416066 79.495785 
L 322.907292 79.100186 
L 323.234776 78.147601 
L 323.398518 78.165314 
L 323.56226 78.331951 
L 324.053486 78.101021 
L 324.217228 79.212371 
L 324.38097 78.524174 
L 324.544712 78.693435 
L 324.708454 78.50646 
L 325.19968 77.314416 
L 325.363422 77.261932 
L 325.527164 77.847129 
L 325.690906 79.007027 
L 325.854648 78.547136 
L 326.345874 78.073467 
L 326.509616 78.877129 
L 326.673358 77.879932 
L 326.8371 77.587333 
L 327.000842 77.059868 
L 327.65581 76.313282 
L 327.819552 76.453021 
L 328.147036 75.548327 
L 328.802004 75.504372 
L 328.965746 75.265569 
L 329.29323 73.851124 
L 329.948198 73.762557 
L 330.11194 74.215232 
L 330.275682 75.11927 
L 330.439424 74.722359 
L 330.93065 74.616079 
L 331.094392 74.339882 
L 331.258134 73.356461 
L 331.585618 72.970047 
L 332.076844 72.987105 
L 332.240586 73.815697 
L 332.404328 73.189168 
L 332.56807 73.340716 
L 332.731812 73.095353 
L 333.223038 73.143245 
L 333.38678 72.284474 
L 333.550522 72.199188 
L 333.714264 71.489341 
L 334.369232 72.000404 
L 334.532974 72.914939 
L 334.696716 72.316621 
L 334.860458 72.851302 
L 335.515426 72.036487 
L 335.679168 72.287098 
L 335.84291 71.743232 
L 336.006652 73.281672 
L 336.170394 71.963009 
L 336.66162 72.264137 
L 336.989104 71.386341 
L 337.152846 71.322704 
L 337.316588 71.955137 
L 337.807814 71.917742 
L 337.971556 72.505563 
L 338.135298 72.497691 
L 338.29904 75.082531 
L 338.462782 75.444671 
L 338.954008 74.536697 
L 339.11775 75.76876 
L 339.281492 75.766792 
L 339.445234 76.466798 
L 339.608976 75.022174 
L 340.100202 74.672499 
L 340.263944 74.880467 
L 340.591428 73.47455 
L 340.75517 73.482423 
L 341.246397 72.38813 
L 341.573881 71.419143 
L 341.737623 71.034697 
L 341.901365 71.29515 
L 342.556333 70.532819 
L 342.720075 70.526258 
L 342.883817 70.748003 
L 343.047559 70.313041 
L 343.866269 70.486895 
L 344.030011 70.688303 
L 344.193753 70.028315 
L 344.684979 70.433099 
L 344.848721 71.292525 
L 345.012463 70.816889 
L 345.176205 70.701424 
L 345.339947 71.48278 
L 345.831173 71.575283 
L 345.994915 70.601048 
L 346.158657 70.431131 
L 346.322399 69.788857 
L 346.486141 69.851838 
L 346.977367 70.908736 
L 347.141109 71.664506 
L 347.304851 70.645659 
L 347.468593 72.76536 
L 347.632335 71.659258 
L 348.123561 71.990563 
L 348.287303 72.352047 
L 348.451045 74.066308 
L 348.614787 74.065652 
L 348.778529 72.640054 
L 349.269755 72.842117 
L 349.433497 74.791901 
L 349.597239 72.575105 
L 349.924723 76.69248 
L 350.415949 78.751823 
L 350.579691 78.557632 
L 350.743433 79.555486 
L 350.907175 79.537772 
L 351.070917 77.96325 
L 351.562143 76.831563 
L 351.725885 74.386461 
L 351.889627 75.316085 
L 352.217111 72.857863 
L 352.708337 73.051398 
L 352.872079 71.514927 
L 353.035821 71.695341 
L 353.199563 70.885118 
L 353.363305 69.349959 
L 353.854531 69.365704 
L 354.018273 69.740309 
L 354.345757 68.486596 
L 354.509499 68.440016 
L 355.164467 67.930921 
L 355.328209 68.024736 
L 355.655693 67.921736 
L 356.146919 67.823329 
L 356.310661 67.135787 
L 356.474403 67.337851 
L 356.638145 67.073462 
L 356.801887 66.368208 
L 357.293113 65.980482 
L 357.456855 66.136622 
L 357.620597 65.756112 
L 357.948081 66.101851 
L 358.439307 67.028195 
L 358.766791 65.657705 
L 358.930533 65.815813 
L 359.094275 65.589475 
L 359.585501 66.577488 
L 359.749243 66.609635 
L 359.912985 68.819214 
L 360.076727 68.216303 
L 360.240469 70.381271 
L 360.731695 71.214455 
L 360.895437 72.322525 
L 361.386663 65.899131 
L 362.532857 64.710367 
L 363.024083 64.592278 
L 363.187825 65.262762 
L 363.351567 66.669991 
L 363.679051 66.715915 
L 364.334019 70.362901 
L 364.661503 66.457431 
L 364.825245 67.594367 
L 365.480213 69.023246 
L 365.807697 71.015016 
L 365.971439 69.26008 
L 366.626407 69.054736 
L 366.790149 68.426895 
L 366.953891 66.39117 
L 367.117633 67.134475 
L 367.608859 66.788736 
L 367.936343 70.392424 
L 368.100085 69.140023 
L 368.263827 70.862812 
L 368.755053 69.166265 
L 368.918795 67.251908 
L 369.082537 67.810864 
L 369.246279 66.432501 
L 369.410021 66.895017 
L 369.901247 67.467749 
L 370.064989 66.034278 
L 370.228731 66.038214 
L 370.556215 64.171094 
L 371.374925 63.994616 
L 371.538667 64.140915 
L 371.702409 63.29789 
L 372.193635 63.339877 
L 372.357377 62.958056 
L 372.684861 63.269024 
L 372.848603 63.678399 
L 373.339829 62.83275 
L 373.667313 64.070062 
L 373.831055 63.905393 
L 373.994797 65.859112 
L 374.486023 65.323119 
L 374.649765 67.63701 
L 374.813507 67.894182 
L 374.977249 66.207475 
L 375.140991 67.030819 
L 375.632217 65.207654 
L 375.795959 65.660985 
L 375.959701 64.006425 
L 376.123443 64.677565 
L 376.287185 63.442221 
L 376.778411 63.683648 
L 376.942153 64.531265 
L 377.105895 66.52894 
L 377.269637 66.850405 
L 377.433379 66.530908 
L 377.924605 64.876348 
L 378.252089 66.618163 
L 378.415831 66.141214 
L 379.070799 65.245049 
L 379.234541 65.526495 
L 379.562025 64.552259 
L 379.725767 63.838476 
L 380.216993 64.470253 
L 380.380735 64.246539 
L 380.544477 63.538661 
L 380.708219 63.646253 
L 380.871961 65.20831 
L 381.363187 63.94738 
L 381.526929 64.151412 
L 381.854413 63.125349 
L 382.018155 62.813068 
L 382.509381 63.388425 
L 382.673123 63.005291 
L 382.836865 63.524227 
L 383.000607 64.92424 
L 383.164349 63.429756 
L 383.655575 63.023005 
L 383.983059 65.275883 
L 384.146801 64.760883 
L 384.310543 62.91738 
L 385.129253 64.073342 
L 385.292995 62.589355 
L 386.111705 62.147833 
L 386.275448 62.277731 
L 386.43919 61.951674 
L 387.2579 63.698081 
L 387.421642 62.433215 
L 387.585384 62.609693 
L 387.749126 63.488801 
L 388.240352 63.204075 
L 388.404094 63.343813 
L 388.567836 63.050559 
L 388.731578 64.246539 
L 388.89532 64.444011 
L 389.386546 65.33296 
L 389.550288 65.275883 
L 389.71403 63.632476 
L 389.877772 63.392361 
L 390.041514 64.360036 
L 390.53274 64.995093 
L 391.023966 62.58017 
L 391.187708 63.318228 
L 391.842676 62.385979 
L 392.17016 63.822075 
L 392.333902 63.875871 
L 392.825128 66.752654 
L 392.98887 66.393794 
L 393.152612 65.454985 
L 393.316354 65.496972 
L 393.971322 66.023125 
L 394.135064 65.197813 
L 394.298806 67.471685 
L 394.462548 67.167934 
L 394.62629 65.507469 
L 395.281258 63.386457 
L 395.445 63.488145 
L 395.608742 62.380075 
L 395.772484 62.225903 
L 396.26371 62.118311 
L 396.754936 63.832571 
L 396.918678 65.308686 
L 397.409904 66.096603 
L 397.737388 63.411387 
L 397.90113 63.40745 
L 398.064872 63.721699 
L 398.556098 64.102208 
L 398.71984 64.411864 
L 398.883582 63.984119 
L 399.211066 65.445144 
L 399.702292 63.699393 
L 399.866034 65.018711 
L 400.029776 64.888813 
L 400.193518 65.063323 
L 400.35726 64.528641 
L 400.848486 63.813546 
L 401.012228 64.175686 
L 401.17597 65.31131 
L 401.503454 72.443895 
L 402.158422 79.219588 
L 402.485906 71.343697 
L 402.649648 71.264315 
L 403.140874 72.359264 
L 403.304616 76.186009 
L 403.468358 73.889175 
L 403.6321 73.740251 
L 403.795842 75.702499 
L 404.45081 72.54099 
L 404.614552 74.336601 
L 404.942036 73.089449 
L 405.433262 73.615601 
L 405.760746 70.841818 
L 405.924488 71.17706 
L 406.08823 73.287576 
L 406.579456 72.701067 
L 406.743198 74.290678 
L 407.234424 75.038576 
L 407.72565 78.29062 
L 407.889392 78.138416 
L 408.053134 75.780569 
L 408.216876 75.531926 
L 408.380618 73.725162 
L 408.871844 71.383716 
L 409.035586 71.851481 
L 409.36307 69.653054 
L 410.018038 69.388666 
L 410.345522 70.912016 
L 410.509264 68.968793 
L 410.673006 68.361946 
L 411.164232 68.325864 
L 411.327974 68.515462 
L 411.491716 69.29157 
L 411.8192 65.603909 
L 412.310426 65.864361 
L 412.474168 66.211412 
L 412.63791 64.606711 
L 412.801652 64.66838 
L 412.965394 65.327711 
L 413.620362 63.331349 
L 413.947846 63.978215 
L 414.111588 64.026106 
L 414.602814 65.378883 
L 414.766556 65.172883 
L 414.930298 65.613749 
L 415.257782 69.02259 
L 415.749008 67.044596 
L 415.91275 67.22501 
L 416.076492 65.050858 
L 416.240234 65.204374 
L 416.403976 64.684125 
L 416.895202 64.853386 
L 417.058944 64.686093 
L 417.222686 64.703807 
L 417.55017 64.622457 
L 418.041396 65.258826 
L 418.205138 63.801081 
L 418.532622 67.278806 
L 418.696364 64.518801 
L 419.18759 65.477947 
L 419.515074 67.410017 
L 419.678816 67.107577 
L 419.842558 69.722596 
L 420.333784 69.094755 
L 420.661268 65.740367 
L 420.988752 70.170022 
L 421.479978 69.146583 
L 421.807462 66.31638 
L 421.971204 66.532877 
L 422.626172 66.827443 
L 422.789914 65.393316 
L 423.117398 67.651443 
L 423.772366 69.70357 
L 423.936108 69.43787 
L 424.09985 71.173124 
L 424.427334 75.649359 
L 424.91856 75.541767 
L 425.082302 74.557034 
L 425.246044 77.73232 
L 425.409786 75.661824 
L 425.573528 78.385091 
L 426.228496 78.319486 
L 426.392238 79.762798 
L 426.55598 79.129053 
L 426.719722 76.641964 
L 427.210948 78.598307 
L 427.37469 76.856493 
L 427.538432 78.213206 
L 427.702174 77.530257 
L 427.865916 74.45469 
L 428.357142 74.511111 
L 428.520884 76.895856 
L 428.848368 76.08104 
L 429.01211 78.40346 
L 429.503336 80.149212 
L 429.83082 80.252868 
L 429.994562 81.747351 
L 430.158304 79.40525 
L 430.813272 77.384613 
L 430.977014 75.335111 
L 431.140756 75.9249 
L 431.304499 75.928181 
L 431.795725 74.109608 
L 431.959467 75.699219 
L 432.123209 75.139607 
L 432.286951 73.702856 
L 432.450693 73.942315 
L 432.941919 74.980187 
L 433.105661 71.954481 
L 433.596887 70.534787 
L 434.088113 70.418666 
L 434.251855 71.89478 
L 434.415597 71.238729 
L 434.579339 71.218392 
L 434.743081 69.078354 
L 435.234307 69.245647 
L 435.398049 69.489042 
L 435.889275 67.281431 
L 436.380501 67.148908 
L 436.544243 67.266997 
L 436.707985 68.125768 
L 436.871727 68.176284 
L 437.526695 68.103462 
L 437.854179 66.338686 
L 438.017921 66.614883 
L 438.181663 65.759393 
L 438.672889 66.195666 
L 438.836631 67.570749 
L 439.000373 66.160896 
L 439.164115 67.784622 
L 439.327857 67.411329 
L 439.819083 67.779373 
L 440.146567 65.12696 
L 440.310309 65.103342 
L 440.474051 65.237832 
L 441.292761 63.81617 
L 441.456503 64.532578 
L 441.620245 64.526017 
L 442.111471 64.77466 
L 442.438955 64.291807 
L 442.766439 66.250119 
L 443.257665 65.191909 
L 443.585149 67.180399 
L 443.748891 67.212545 
L 443.912633 66.785456 
L 444.403859 66.683768 
L 444.567601 64.997718 
L 444.731343 66.305227 
L 444.895085 66.328189 
L 445.058827 67.476278 
L 445.550053 66.160896 
L 445.713795 67.436915 
L 445.877537 67.409361 
L 446.041279 67.907303 
L 446.205021 67.101673 
L 446.696247 67.382462 
L 447.023731 64.594246 
L 447.187473 64.623113 
L 447.351215 64.035291 
L 448.006183 64.173062 
L 448.169925 64.017578 
L 448.333667 63.62854 
L 448.497409 64.030699 
L 449.316119 62.719253 
L 449.479861 62.958056 
L 449.643603 64.23145 
L 450.462313 65.843367 
L 450.626055 65.41759 
L 450.789797 65.861737 
L 451.444765 64.701839 
L 451.608507 64.928176 
L 451.772249 63.099763 
L 451.935991 68.079844 
L 452.427217 70.498704 
L 452.918443 64.048412 
L 453.082185 63.780087 
L 453.737153 64.7248 
L 453.900895 63.991336 
L 454.064637 64.111393 
L 454.228379 62.01203 
L 454.719605 61.535737 
L 454.883347 60.552973 
L 455.047089 60.533948 
L 455.210831 59.791298 
L 455.374573 59.923164 
L 455.865799 59.585298 
L 456.029541 59.78933 
L 456.193283 59.183139 
L 456.357025 59.698139 
L 456.520767 59.051273 
L 457.011993 59.480986 
L 457.175735 59.435063 
L 457.339477 59.605636 
L 457.666961 59.145088 
L 458.158187 59.326158 
L 458.321929 60.232164 
L 458.485671 59.788674 
L 458.649413 59.758496 
L 458.813155 58.536929 
L 459.468123 58.611063 
L 459.631865 59.021095 
L 459.795607 58.345362 
L 459.959349 58.459515 
L 460.450575 58.059324 
L 460.614317 58.846585 
L 460.941801 58.264668 
L 461.105543 58.471324 
L 461.596769 58.552018 
L 461.760511 58.272541 
L 461.924253 59.024375 
L 462.251737 59.444247 
L 462.742963 58.700286 
L 463.234189 59.324846 
L 463.397931 58.726528 
L 464.216641 58.321088 
L 464.380383 58.639929 
L 464.544125 62.149145 
L 465.035351 60.100298 
L 465.199093 62.200973 
L 465.362835 62.282979 
L 465.526577 60.873126 
L 465.690319 61.404527 
L 466.345287 61.365164 
L 466.672771 58.910222 
L 466.836513 59.729629 
L 467.327739 60.949228 
L 467.655223 59.291387 
L 467.818965 60.619234 
L 467.982707 59.494763 
L 468.473933 59.958591 
L 468.637675 60.661222 
L 468.801417 60.055031 
L 468.965159 59.986801 
L 469.128901 60.448005 
L 469.620127 59.797203 
L 469.783869 61.563948 
L 469.947611 61.403215 
L 470.111353 61.838177 
L 470.275095 61.809967 
L 470.766321 62.235088 
L 471.093805 61.067973 
L 471.257547 61.261508 
L 471.421289 61.273317 
L 471.912515 60.606113 
L 472.239999 61.386814 
L 472.567483 62.240992 
L 473.058709 62.258049 
L 473.549935 64.717584 
L 473.713677 64.94589 
L 474.696129 59.546591 
L 474.859871 59.745375 
L 475.351097 59.761776 
L 475.514839 58.69963 
L 475.678581 58.925967 
L 475.842323 58.258107 
L 476.006065 58.600566 
L 476.661034 57.220235 
L 476.824776 57.103458 
L 477.15226 56.537286 
L 477.643486 57.300273 
L 477.807228 57.107394 
L 478.134712 57.998311 
L 478.298454 57.941235 
L 478.953422 56.610764 
L 479.117164 54.700344 
L 479.280906 54.382815 
L 479.444648 53.507643 
L 479.935874 53.676248 
L 480.099616 52.707917 
L 480.263358 53.917675 
L 480.4271 53.343631 
L 480.590842 53.603427 
L 481.082068 53.310828 
L 481.24581 52.770898 
L 481.573294 53.413828 
L 481.737036 53.228166 
L 482.392004 52.894236 
L 482.555746 54.138108 
L 482.719488 54.181408 
L 482.88323 54.865669 
L 483.538198 53.619172 
L 483.70194 52.771554 
L 483.865682 52.886363 
L 484.029424 52.362835 
L 484.52065 52.892924 
L 484.684392 52.892924 
L 484.848134 52.471739 
L 485.011876 52.791892 
L 485.175618 52.516351 
L 485.830586 52.959185 
L 485.994328 52.696765 
L 486.15807 53.234726 
L 486.321812 52.734815 
L 486.813038 53.135663 
L 487.140522 50.959542 
L 487.468006 51.200969 
L 488.122974 52.238841 
L 488.450458 52.108943 
L 488.6142 51.021867 
L 489.105426 51.340707 
L 489.43291 51.202281 
L 489.760394 49.796364 
L 490.25162 48.999262 
L 490.579104 47.621555 
L 490.742846 47.754734 
L 491.561556 46.563345 
L 491.725298 46.731294 
L 491.88904 46.666345 
L 492.052782 46.434759 
L 492.544008 46.276651 
L 492.70775 46.677498 
L 492.871492 44.557142 
L 493.035234 45.478237 
L 493.198976 45.399511 
L 493.690202 45.911887 
L 494.017686 46.720797 
L 494.181428 46.596804 
L 494.34517 46.089677 
L 494.836396 46.0326 
L 495.000138 46.558753 
L 495.16388 45.259116 
L 495.491364 45.719008 
L 495.98259 46.0326 
L 496.146332 47.96467 
L 496.310074 47.674039 
L 496.637558 47.967294 
L 497.128784 48.12409 
L 497.292526 47.010116 
L 497.456268 46.842167 
L 497.62001 46.387524 
L 497.783752 46.737855 
L 498.274978 46.992403 
L 498.43872 46.905804 
L 498.602462 47.378816 
L 498.766204 47.080969 
L 498.929946 47.208899 
L 499.421172 47.102619 
L 499.584914 47.324364 
L 499.748656 47.904969 
L 499.912398 48.953338 
L 500.567366 47.6373 
L 500.89485 48.34846 
L 501.058592 47.189218 
L 501.222334 47.658294 
L 501.877302 45.039339 
L 502.041044 45.115441 
L 502.204786 45.028842 
L 502.368528 45.328658 
L 503.023496 44.87139 
L 503.187238 45.07083 
L 503.35098 44.979639 
L 503.514722 44.338677 
L 504.005948 44.332772 
L 504.16969 44.494161 
L 504.333432 44.316371 
L 504.660916 44.889104 
L 505.152142 44.139893 
L 505.315884 44.248142 
L 505.479626 47.111148 
L 505.643368 46.54104 
L 505.80711 45.490702 
L 506.62582 44.004091 
L 506.789562 43.303429 
L 506.953304 43.254225 
L 507.772014 43.517957 
L 508.099498 41.728907 
L 508.590724 41.923754 
L 508.754466 42.3679 
L 508.918208 42.117945 
L 509.08195 42.075302 
L 509.245692 42.207824 
L 509.736918 42.363964 
L 509.90066 41.644932 
L 510.064402 41.804353 
L 510.228144 42.162556 
L 510.391886 42.117289 
L 510.883112 40.78485 
L 511.046854 41.862741 
L 511.374338 42.028722 
L 511.53808 41.779423 
L 512.029306 41.728907 
L 512.193048 43.020671 
L 512.35679 41.622626 
L 512.520532 42.999677 
L 512.684274 42.756282 
L 513.502984 42.157308 
L 513.666726 43.652448 
L 513.830468 42.640161 
L 514.321694 42.49255 
L 514.485436 42.617199 
L 514.649178 41.454677 
L 514.81292 41.154206 
L 514.976662 40.403684 
L 515.63163 40.315773 
L 515.795372 39.448474 
L 516.122856 39.533105 
L 516.614082 39.705646 
L 516.777824 39.231977 
L 516.941566 39.186054 
L 517.26905 39.561971 
L 517.760276 39.68006 
L 517.924018 39.283149 
L 518.08776 39.203111 
L 518.251502 39.558034 
L 518.415244 39.251659 
L 518.90647 38.98399 
L 519.070212 39.376964 
L 519.233954 39.436009 
L 519.397696 41.785327 
L 519.561438 41.581295 
L 520.052664 39.972659 
L 520.216406 40.053353 
L 520.380148 39.823735 
L 520.54389 42.323289 
L 520.707632 42.615887 
L 521.198859 42.430881 
L 521.362601 40.847174 
L 521.690085 41.735467 
L 521.853827 41.467798 
L 522.508795 41.254582 
L 523.000021 39.270028 
L 523.654989 40.496843 
L 523.818731 39.99234 
L 523.982473 40.021206 
L 524.146215 40.261977 
L 524.801183 37.962519 
L 524.964925 37.838525 
L 525.128667 38.018939 
L 525.292409 37.7165 
L 525.947377 37.295315 
L 526.111119 37.191003 
L 526.274861 37.692226 
L 526.438603 37.585946 
L 527.093571 37.938901 
L 527.257313 37.269729 
L 527.421055 37.071602 
L 527.584797 36.461475 
L 528.403507 35.255653 
L 528.567249 34.315532 
L 528.730991 34.49529 
L 529.222217 34.797074 
L 529.549701 34.107564 
L 529.713443 34.390322 
L 530.368411 33.950112 
L 530.859637 33.657513 
L 531.023379 32.797431 
L 531.514605 33.468571 
L 531.678347 33.19631 
L 531.842089 33.982258 
L 532.005831 33.769042 
L 532.169573 32.412985 
L 532.660799 32.953571 
L 533.152025 32.493023 
L 533.315767 31.968838 
L 534.134477 31.539781 
L 534.298219 32.180087 
L 534.461961 32.332291 
L 534.953187 32.165654 
L 535.116929 32.557316 
L 535.280671 33.492188 
L 535.444413 32.11317 
L 535.608155 32.558628 
L 536.099381 32.342787 
L 536.263123 31.234718 
L 536.426865 31.362647 
L 536.754349 31.012316 
L 537.245575 31.077921 
L 537.409317 29.397119 
L 537.573059 29.460756 
L 537.736801 28.049591 
L 537.900543 28.401234 
L 538.391769 28.583616 
L 538.555511 29.231138 
L 538.719253 29.25082 
L 538.882995 28.745005 
L 539.046737 27.792419 
L 539.701705 26.965139 
L 539.865447 27.047801 
L 540.029189 27.75896 
L 540.192931 26.197559 
L 540.684157 25.256126 
L 540.847899 25.826234 
L 541.011641 25.971878 
L 541.175383 25.622859 
L 541.339125 25.703553 
L 541.994093 25.889871 
L 542.157835 25.750789 
L 542.321577 25.428012 
L 542.485319 26.34189 
L 543.140287 24.885458 
L 543.631513 21.779713 
L 544.122739 21.480554 
L 544.286481 21.245688 
L 544.450223 21.446439 
L 544.777707 18.95279 
L 545.432675 19.597032 
L 545.596417 17.882115 
L 545.760159 18.179306 
L 545.923901 17.374332 
L 546.578869 15.482937 
L 546.742611 15.587249 
L 546.906353 15.475064 
L 547.070095 13.269421 
L 547.561321 14.538224 
L 547.725063 16.578542 
L 547.888805 16.488007 
L 548.052547 16.608064 
L 548.216289 20.534528 
L 548.707515 27.960368 
L 548.871257 24.929413 
L 549.034999 25.813769 
L 549.198741 32.417577 
L 549.362483 29.888501 
L 550.017451 27.041897 
L 550.344935 22.563694 
L 550.508677 22.496776 
L 551.163645 23.543834 
L 551.327387 24.523317 
L 551.491129 24.350776 
L 551.654871 21.507452 
L 552.146097 19.388408 
L 552.637323 26.075534 
L 552.801065 25.184617 
L 553.456033 22.765757 
L 553.619775 22.852356 
L 553.783517 22.053942 
L 553.947259 18.93114 
L 554.438485 19.164038 
L 554.765969 21.364433 
L 554.929711 21.505484 
L 555.093453 21.198452 
L 555.584679 23.762955 
L 555.748421 23.499222 
L 555.912163 23.827904 
L 556.239647 31.941284 
L 556.730873 27.329903 
L 556.894615 30.343144 
L 557.058357 30.843055 
L 557.222099 28.489801 
L 557.877067 32.359845 
L 558.368293 27.048457 
L 558.532035 30.877826 
L 559.023261 30.307718 
L 559.187003 27.44012 
L 559.350745 28.403202 
L 559.514487 26.973011 
L 559.678229 27.477514 
L 560.169455 26.064381 
L 560.333197 24.191356 
L 560.496939 24.043744 
L 560.824423 26.56954 
L 561.315649 26.559699 
L 561.479391 28.903769 
L 561.643133 28.58624 
L 561.806875 26.779476 
L 561.970617 26.584629 
L 562.461843 28.018756 
L 562.625585 27.575922 
L 562.789327 28.830947 
L 562.953069 29.220641 
L 563.116811 27.010406 
L 563.608037 26.406183 
L 563.771779 26.452763 
L 564.099263 23.097063 
L 564.263005 22.791999 
L 564.754231 22.633891 
L 564.917973 23.859394 
L 565.081715 23.137082 
L 565.245457 23.289942 
L 565.409199 23.759674 
L 565.900425 22.444948 
L 566.064167 23.007184 
L 566.22791 22.426579 
L 566.555394 23.211216 
L 567.210362 25.275808 
L 567.374104 23.035394 
L 567.537846 24.264833 
L 567.701588 22.339324 
L 568.356556 21.409044 
L 568.520298 19.864044 
L 568.68404 19.993943 
L 568.847782 19.425803 
L 569.339008 19.230955 
L 569.50275 18.912771 
L 569.666492 19.64886 
L 569.830234 19.198809 
L 569.993976 19.384471 
L 570.485202 19.772197 
L 570.648944 20.50435 
L 570.812686 20.194038 
L 570.976428 21.346063 
L 571.14017 21.010165 
L 571.631396 23.490693 
L 571.795138 23.097719 
L 571.95888 24.634846 
L 572.122622 23.540553 
L 572.286364 23.405407 
L 572.286364 23.405407 
" clip-path="url(#pe8591f30ae)" style="fill: none; stroke: #4c72b0; stroke-width: 1.75; stroke-linecap: round"/>
   </g>
   <g id="patch_3">
    <path d="M 39.65 140.727273 
L 39.65 7.2 
" style="fill: none"/>
   </g>
   <g id="patch_4">
    <path d="M 597.65 140.727273 
L 597.65 7.2 
" style="fill: none"/>
   </g>
   <g id="patch_5">
    <path d="M 39.65 140.727273 
L 597.65 140.727273 
" style="fill: none"/>
   </g>
   <g id="patch_6">
    <path d="M 39.65 7.2 
L 597.65 7.2 
" style="fill: none"/>
   </g>
   <g id="legend_1">
    <g id="line2d_35">
     <path d="M 48.65 20.298437 
L 58.65 20.298437 
L 68.65 20.298437 
" style="fill: none; stroke: #4c72b0; stroke-width: 1.75; stroke-linecap: round"/>
    </g>
    <g id="text_5">
     <!-- .SPX -->
     <g style="fill: #262626" transform="translate(76.65 23.798437)scale(0.1 -0.1)">
      <defs>
       <path id="DejaVuSerif-2e" d="M 603 325 
Q 603 500 722 622 
Q 841 744 1019 744 
Q 1191 744 1312 622 
Q 1434 500 1434 325 
Q 1434 153 1312 31 
Q 1191 -91 1019 -91 
Q 841 -91 722 29 
Q 603 150 603 325 
z
" transform="scale(0.015625)"/>
       <path id="DejaVuSerif-53" d="M 594 225 
L 594 1288 
L 953 1284 
Q 969 753 1261 498 
Q 1553 244 2150 244 
Q 2706 244 2998 464 
Q 3291 684 3291 1106 
Q 3291 1444 3114 1625 
Q 2938 1806 2369 1978 
L 1753 2163 
Q 1084 2366 811 2669 
Q 538 2972 538 3500 
Q 538 4094 959 4422 
Q 1381 4750 2144 4750 
Q 2469 4750 2856 4679 
Q 3244 4609 3681 4475 
L 3681 3481 
L 3328 3481 
Q 3275 3975 2998 4195 
Q 2722 4416 2156 4416 
Q 1663 4416 1405 4214 
Q 1147 4013 1147 3628 
Q 1147 3294 1340 3103 
Q 1534 2913 2163 2725 
L 2741 2553 
Q 3375 2363 3645 2067 
Q 3916 1772 3916 1275 
Q 3916 597 3481 253 
Q 3047 -91 2188 -91 
Q 1803 -91 1404 -12 
Q 1006 66 594 225 
z
" transform="scale(0.015625)"/>
       <path id="DejaVuSerif-50" d="M 1581 2375 
L 2406 2375 
Q 2872 2375 3115 2626 
Q 3359 2878 3359 3353 
Q 3359 3831 3115 4081 
Q 2872 4331 2406 4331 
L 1581 4331 
L 1581 2375 
z
M 353 0 
L 353 331 
L 947 331 
L 947 4331 
L 353 4331 
L 353 4666 
L 2559 4666 
Q 3259 4666 3668 4311 
Q 4078 3956 4078 3353 
Q 4078 2753 3668 2397 
Q 3259 2041 2559 2041 
L 1581 2041 
L 1581 331 
L 2303 331 
L 2303 0 
L 353 0 
z
" transform="scale(0.015625)"/>
       <path id="DejaVuSerif-58" d="M 2119 1997 
L 978 331 
L 1581 331 
L 1581 0 
L 38 0 
L 38 331 
L 575 331 
L 1919 2291 
L 556 4331 
L 56 4331 
L 56 4666 
L 1906 4666 
L 1906 4331 
L 1356 4331 
L 2356 2828 
L 3384 4331 
L 2784 4331 
L 2784 4666 
L 4313 4666 
L 4313 4331 
L 3788 4331 
L 2553 2534 
L 4025 331 
L 4525 331 
L 4525 0 
L 2675 0 
L 2675 331 
L 3231 331 
L 2119 1997 
z
" transform="scale(0.015625)"/>
      </defs>
      <use xlink:href="#DejaVuSerif-2e"/>
      <use xlink:href="#DejaVuSerif-53" x="31.787109"/>
      <use xlink:href="#DejaVuSerif-50" x="100.292969"/>
      <use xlink:href="#DejaVuSerif-58" x="167.578125"/>
     </g>
    </g>
   </g>
  </g>
  <g id="axes_2">
   <g id="patch_7">
    <path d="M 39.65 300.96 
L 597.65 300.96 
L 597.65 167.432727 
L 39.65 167.432727 
z
" style="fill: #eaeaf2"/>
   </g>
   <g id="matplotlib.axis_3">
    <g id="xtick_17">
     <g id="line2d_36">
      <path d="M 64.52241 300.96 
L 64.52241 167.432727 
" clip-path="url(#p31bb2fec1f)" style="fill: none; stroke: #ffffff; stroke-linecap: round"/>
     </g>
     <g id="line2d_37"/>
     <g id="text_6">
      <!-- 2010 -->
      <g style="fill: #262626" transform="translate(41.44222 327.26544)rotate(-30)scale(0.1 -0.1)">
       <use xlink:href="#DejaVuSerif-32"/>
       <use xlink:href="#DejaVuSerif-30" x="63.623047"/>
       <use xlink:href="#DejaVuSerif-31" x="127.246094"/>
       <use xlink:href="#DejaVuSerif-30" x="190.869141"/>
      </g>
     </g>
    </g>
    <g id="xtick_18">
     <g id="line2d_38">
      <path d="M 124.288242 300.96 
L 124.288242 167.432727 
" clip-path="url(#p31bb2fec1f)" style="fill: none; stroke: #ffffff; stroke-linecap: round"/>
     </g>
     <g id="line2d_39"/>
     <g id="text_7">
      <!-- 2011 -->
      <g style="fill: #262626" transform="translate(101.208051 327.26544)rotate(-30)scale(0.1 -0.1)">
       <use xlink:href="#DejaVuSerif-32"/>
       <use xlink:href="#DejaVuSerif-30" x="63.623047"/>
       <use xlink:href="#DejaVuSerif-31" x="127.246094"/>
       <use xlink:href="#DejaVuSerif-31" x="190.869141"/>
      </g>
     </g>
    </g>
    <g id="xtick_19">
     <g id="line2d_40">
      <path d="M 184.054073 300.96 
L 184.054073 167.432727 
" clip-path="url(#p31bb2fec1f)" style="fill: none; stroke: #ffffff; stroke-linecap: round"/>
     </g>
     <g id="line2d_41"/>
     <g id="text_8">
      <!-- 2012 -->
      <g style="fill: #262626" transform="translate(160.973883 327.26544)rotate(-30)scale(0.1 -0.1)">
       <use xlink:href="#DejaVuSerif-32"/>
       <use xlink:href="#DejaVuSerif-30" x="63.623047"/>
       <use xlink:href="#DejaVuSerif-31" x="127.246094"/>
       <use xlink:href="#DejaVuSerif-32" x="190.869141"/>
      </g>
     </g>
    </g>
    <g id="xtick_20">
     <g id="line2d_42">
      <path d="M 243.983646 300.96 
L 243.983646 167.432727 
" clip-path="url(#p31bb2fec1f)" style="fill: none; stroke: #ffffff; stroke-linecap: round"/>
     </g>
     <g id="line2d_43"/>
     <g id="text_9">
      <!-- 2013 -->
      <g style="fill: #262626" transform="translate(220.903456 327.26544)rotate(-30)scale(0.1 -0.1)">
       <defs>
        <path id="DejaVuSerif-33" d="M 622 4469 
Q 988 4606 1323 4678 
Q 1659 4750 1953 4750 
Q 2638 4750 3022 4454 
Q 3406 4159 3406 3634 
Q 3406 3213 3140 2930 
Q 2875 2647 2388 2547 
Q 2963 2466 3280 2130 
Q 3597 1794 3597 1259 
Q 3597 606 3158 257 
Q 2719 -91 1894 -91 
Q 1528 -91 1179 -12 
Q 831 66 488 225 
L 488 1131 
L 838 1131 
Q 869 681 1141 450 
Q 1413 219 1906 219 
Q 2384 219 2661 495 
Q 2938 772 2938 1253 
Q 2938 1803 2653 2086 
Q 2369 2369 1819 2369 
L 1522 2369 
L 1522 2688 
L 1678 2688 
Q 2225 2688 2498 2914 
Q 2772 3141 2772 3597 
Q 2772 4006 2547 4223 
Q 2322 4441 1900 4441 
Q 1478 4441 1245 4241 
Q 1013 4041 972 3647 
L 622 3647 
L 622 4469 
z
" transform="scale(0.015625)"/>
       </defs>
       <use xlink:href="#DejaVuSerif-32"/>
       <use xlink:href="#DejaVuSerif-30" x="63.623047"/>
       <use xlink:href="#DejaVuSerif-31" x="127.246094"/>
       <use xlink:href="#DejaVuSerif-33" x="190.869141"/>
      </g>
     </g>
    </g>
    <g id="xtick_21">
     <g id="line2d_44">
      <path d="M 303.749478 300.96 
L 303.749478 167.432727 
" clip-path="url(#p31bb2fec1f)" style="fill: none; stroke: #ffffff; stroke-linecap: round"/>
     </g>
     <g id="line2d_45"/>
     <g id="text_10">
      <!-- 2014 -->
      <g style="fill: #262626" transform="translate(280.669287 327.26544)rotate(-30)scale(0.1 -0.1)">
       <defs>
        <path id="DejaVuSerif-34" d="M 2234 1581 
L 2234 4063 
L 641 1581 
L 2234 1581 
z
M 3609 0 
L 1484 0 
L 1484 331 
L 2234 331 
L 2234 1247 
L 197 1247 
L 197 1588 
L 2241 4750 
L 2859 4750 
L 2859 1581 
L 3750 1581 
L 3750 1247 
L 2859 1247 
L 2859 331 
L 3609 331 
L 3609 0 
z
" transform="scale(0.015625)"/>
       </defs>
       <use xlink:href="#DejaVuSerif-32"/>
       <use xlink:href="#DejaVuSerif-30" x="63.623047"/>
       <use xlink:href="#DejaVuSerif-31" x="127.246094"/>
       <use xlink:href="#DejaVuSerif-34" x="190.869141"/>
      </g>
     </g>
    </g>
    <g id="xtick_22">
     <g id="line2d_46">
      <path d="M 363.515309 300.96 
L 363.515309 167.432727 
" clip-path="url(#p31bb2fec1f)" style="fill: none; stroke: #ffffff; stroke-linecap: round"/>
     </g>
     <g id="line2d_47"/>
     <g id="text_11">
      <!-- 2015 -->
      <g style="fill: #262626" transform="translate(340.435119 327.26544)rotate(-30)scale(0.1 -0.1)">
       <use xlink:href="#DejaVuSerif-32"/>
       <use xlink:href="#DejaVuSerif-30" x="63.623047"/>
       <use xlink:href="#DejaVuSerif-31" x="127.246094"/>
       <use xlink:href="#DejaVuSerif-35" x="190.869141"/>
      </g>
     </g>
    </g>
    <g id="xtick_23">
     <g id="line2d_48">
      <path d="M 423.28114 300.96 
L 423.28114 167.432727 
" clip-path="url(#p31bb2fec1f)" style="fill: none; stroke: #ffffff; stroke-linecap: round"/>
     </g>
     <g id="line2d_49"/>
     <g id="text_12">
      <!-- 2016 -->
      <g style="fill: #262626" transform="translate(400.20095 327.26544)rotate(-30)scale(0.1 -0.1)">
       <defs>
        <path id="DejaVuSerif-36" d="M 2094 219 
Q 2534 219 2771 542 
Q 3009 866 3009 1472 
Q 3009 2078 2771 2401 
Q 2534 2725 2094 2725 
Q 1647 2725 1412 2412 
Q 1178 2100 1178 1509 
Q 1178 888 1415 553 
Q 1653 219 2094 219 
z
M 1075 2569 
Q 1288 2803 1556 2918 
Q 1825 3034 2163 3034 
Q 2859 3034 3264 2615 
Q 3669 2197 3669 1472 
Q 3669 763 3233 336 
Q 2797 -91 2069 -91 
Q 1278 -91 853 498 
Q 428 1088 428 2181 
Q 428 3406 931 4078 
Q 1434 4750 2350 4750 
Q 2597 4750 2869 4703 
Q 3141 4656 3425 4563 
L 3425 3794 
L 3072 3794 
Q 3034 4109 2831 4275 
Q 2628 4441 2284 4441 
Q 1678 4441 1381 3981 
Q 1084 3522 1075 2569 
z
" transform="scale(0.015625)"/>
       </defs>
       <use xlink:href="#DejaVuSerif-32"/>
       <use xlink:href="#DejaVuSerif-30" x="63.623047"/>
       <use xlink:href="#DejaVuSerif-31" x="127.246094"/>
       <use xlink:href="#DejaVuSerif-36" x="190.869141"/>
      </g>
     </g>
    </g>
    <g id="xtick_24">
     <g id="line2d_50">
      <path d="M 483.210714 300.96 
L 483.210714 167.432727 
" clip-path="url(#p31bb2fec1f)" style="fill: none; stroke: #ffffff; stroke-linecap: round"/>
     </g>
     <g id="line2d_51"/>
     <g id="text_13">
      <!-- 2017 -->
      <g style="fill: #262626" transform="translate(460.130523 327.26544)rotate(-30)scale(0.1 -0.1)">
       <defs>
        <path id="DejaVuSerif-37" d="M 3609 4347 
L 1784 0 
L 1319 0 
L 3059 4153 
L 903 4153 
L 903 3578 
L 538 3578 
L 538 4666 
L 3609 4666 
L 3609 4347 
z
" transform="scale(0.015625)"/>
       </defs>
       <use xlink:href="#DejaVuSerif-32"/>
       <use xlink:href="#DejaVuSerif-30" x="63.623047"/>
       <use xlink:href="#DejaVuSerif-31" x="127.246094"/>
       <use xlink:href="#DejaVuSerif-37" x="190.869141"/>
      </g>
     </g>
    </g>
    <g id="xtick_25">
     <g id="line2d_52">
      <path d="M 542.976545 300.96 
L 542.976545 167.432727 
" clip-path="url(#p31bb2fec1f)" style="fill: none; stroke: #ffffff; stroke-linecap: round"/>
     </g>
     <g id="line2d_53"/>
     <g id="text_14">
      <!-- 2018 -->
      <g style="fill: #262626" transform="translate(519.896355 327.26544)rotate(-30)scale(0.1 -0.1)">
       <defs>
        <path id="DejaVuSerif-38" d="M 2981 1275 
Q 2981 1775 2732 2051 
Q 2484 2328 2034 2328 
Q 1584 2328 1336 2051 
Q 1088 1775 1088 1275 
Q 1088 772 1336 495 
Q 1584 219 2034 219 
Q 2484 219 2732 495 
Q 2981 772 2981 1275 
z
M 2853 3541 
Q 2853 3966 2637 4203 
Q 2422 4441 2034 4441 
Q 1650 4441 1433 4203 
Q 1216 3966 1216 3541 
Q 1216 3113 1433 2875 
Q 1650 2638 2034 2638 
Q 2422 2638 2637 2875 
Q 2853 3113 2853 3541 
z
M 2516 2484 
Q 3047 2413 3344 2092 
Q 3641 1772 3641 1275 
Q 3641 619 3225 264 
Q 2809 -91 2034 -91 
Q 1263 -91 845 264 
Q 428 619 428 1275 
Q 428 1772 725 2092 
Q 1022 2413 1556 2484 
Q 1084 2569 832 2842 
Q 581 3116 581 3541 
Q 581 4103 968 4426 
Q 1356 4750 2034 4750 
Q 2713 4750 3100 4426 
Q 3488 4103 3488 3541 
Q 3488 3116 3236 2842 
Q 2984 2569 2516 2484 
z
" transform="scale(0.015625)"/>
       </defs>
       <use xlink:href="#DejaVuSerif-32"/>
       <use xlink:href="#DejaVuSerif-30" x="63.623047"/>
       <use xlink:href="#DejaVuSerif-31" x="127.246094"/>
       <use xlink:href="#DejaVuSerif-38" x="190.869141"/>
      </g>
     </g>
    </g>
    <g id="xtick_26">
     <g id="line2d_54"/>
    </g>
    <g id="xtick_27">
     <g id="line2d_55"/>
    </g>
    <g id="xtick_28">
     <g id="line2d_56"/>
    </g>
    <g id="xtick_29">
     <g id="line2d_57"/>
    </g>
    <g id="xtick_30">
     <g id="line2d_58"/>
    </g>
    <g id="xtick_31">
     <g id="line2d_59"/>
    </g>
    <g id="xtick_32">
     <g id="line2d_60"/>
    </g>
    <g id="text_15">
     <!-- Date -->
     <g style="fill: #262626" transform="translate(305.495547 341.424783)scale(0.11 -0.11)">
      <defs>
       <path id="DejaVuSerif-44" d="M 1581 331 
L 2163 331 
Q 3072 331 3558 850 
Q 4044 1369 4044 2338 
Q 4044 3306 3559 3818 
Q 3075 4331 2163 4331 
L 1581 4331 
L 1581 331 
z
M 353 0 
L 353 331 
L 947 331 
L 947 4331 
L 353 4331 
L 353 4666 
L 2209 4666 
Q 3416 4666 4089 4050 
Q 4763 3434 4763 2338 
Q 4763 1238 4088 619 
Q 3413 0 2209 0 
L 353 0 
z
" transform="scale(0.015625)"/>
       <path id="DejaVuSerif-61" d="M 2547 1044 
L 2547 1747 
L 1806 1747 
Q 1378 1747 1168 1562 
Q 959 1378 959 997 
Q 959 650 1171 447 
Q 1384 244 1747 244 
Q 2106 244 2326 466 
Q 2547 688 2547 1044 
z
M 3122 2075 
L 3122 331 
L 3634 331 
L 3634 0 
L 2547 0 
L 2547 359 
Q 2356 128 2106 18 
Q 1856 -91 1522 -91 
Q 969 -91 644 203 
Q 319 497 319 997 
Q 319 1513 691 1797 
Q 1063 2081 1741 2081 
L 2547 2081 
L 2547 2309 
Q 2547 2688 2317 2895 
Q 2088 3103 1672 3103 
Q 1328 3103 1125 2947 
Q 922 2791 872 2484 
L 575 2484 
L 575 3156 
Q 875 3284 1158 3348 
Q 1441 3413 1709 3413 
Q 2400 3413 2761 3070 
Q 3122 2728 3122 2075 
z
" transform="scale(0.015625)"/>
       <path id="DejaVuSerif-74" d="M 691 2988 
L 184 2988 
L 184 3322 
L 691 3322 
L 691 4353 
L 1269 4353 
L 1269 3322 
L 2350 3322 
L 2350 2988 
L 1269 2988 
L 1269 878 
Q 1269 456 1350 337 
Q 1431 219 1650 219 
Q 1875 219 1978 351 
Q 2081 484 2088 781 
L 2522 781 
Q 2497 328 2275 118 
Q 2053 -91 1600 -91 
Q 1103 -91 897 129 
Q 691 350 691 878 
L 691 2988 
z
" transform="scale(0.015625)"/>
       <path id="DejaVuSerif-65" d="M 3469 1600 
L 991 1600 
L 991 1575 
Q 991 903 1244 561 
Q 1497 219 1991 219 
Q 2369 219 2611 417 
Q 2853 616 2950 1006 
L 3413 1006 
Q 3275 459 2904 184 
Q 2534 -91 1931 -91 
Q 1203 -91 761 389 
Q 319 869 319 1663 
Q 319 2450 753 2931 
Q 1188 3413 1894 3413 
Q 2647 3413 3050 2948 
Q 3453 2484 3469 1600 
z
M 2791 1931 
Q 2772 2513 2545 2808 
Q 2319 3103 1894 3103 
Q 1497 3103 1269 2806 
Q 1041 2509 991 1931 
L 2791 1931 
z
" transform="scale(0.015625)"/>
      </defs>
      <use xlink:href="#DejaVuSerif-44"/>
      <use xlink:href="#DejaVuSerif-61" x="80.175781"/>
      <use xlink:href="#DejaVuSerif-74" x="139.794922"/>
      <use xlink:href="#DejaVuSerif-65" x="179.980469"/>
     </g>
    </g>
   </g>
   <g id="matplotlib.axis_4">
    <g id="ytick_5">
     <g id="line2d_61">
      <path d="M 39.65 270.911207 
L 597.65 270.911207 
" clip-path="url(#p31bb2fec1f)" style="fill: none; stroke: #ffffff; stroke-linecap: round"/>
     </g>
     <g id="line2d_62"/>
     <g id="text_16">
      <!-- 0.10 -->
      <g style="fill: #262626" transform="translate(10.384375 274.710426)scale(0.1 -0.1)">
       <use xlink:href="#DejaVuSerif-30"/>
       <use xlink:href="#DejaVuSerif-2e" x="63.623047"/>
       <use xlink:href="#DejaVuSerif-31" x="95.410156"/>
       <use xlink:href="#DejaVuSerif-30" x="159.033203"/>
      </g>
     </g>
    </g>
    <g id="ytick_6">
     <g id="line2d_63">
      <path d="M 39.65 234.90491 
L 597.65 234.90491 
" clip-path="url(#p31bb2fec1f)" style="fill: none; stroke: #ffffff; stroke-linecap: round"/>
     </g>
     <g id="line2d_64"/>
     <g id="text_17">
      <!-- 0.15 -->
      <g style="fill: #262626" transform="translate(10.384375 238.704129)scale(0.1 -0.1)">
       <use xlink:href="#DejaVuSerif-30"/>
       <use xlink:href="#DejaVuSerif-2e" x="63.623047"/>
       <use xlink:href="#DejaVuSerif-31" x="95.410156"/>
       <use xlink:href="#DejaVuSerif-35" x="159.033203"/>
      </g>
     </g>
    </g>
    <g id="ytick_7">
     <g id="line2d_65">
      <path d="M 39.65 198.898613 
L 597.65 198.898613 
" clip-path="url(#p31bb2fec1f)" style="fill: none; stroke: #ffffff; stroke-linecap: round"/>
     </g>
     <g id="line2d_66"/>
     <g id="text_18">
      <!-- 0.20 -->
      <g style="fill: #262626" transform="translate(10.384375 202.697832)scale(0.1 -0.1)">
       <use xlink:href="#DejaVuSerif-30"/>
       <use xlink:href="#DejaVuSerif-2e" x="63.623047"/>
       <use xlink:href="#DejaVuSerif-32" x="95.410156"/>
       <use xlink:href="#DejaVuSerif-30" x="159.033203"/>
      </g>
     </g>
    </g>
   </g>
   <g id="line2d_67">
    <path d="M 124.615726 213.099187 
L 126.253146 213.225994 
L 126.416888 213.390147 
L 127.235598 213.696274 
L 127.563082 215.536763 
L 128.381792 215.572316 
L 128.545534 215.891176 
L 128.709276 215.403688 
L 129.200502 215.676725 
L 129.364244 215.466045 
L 129.527986 215.520092 
L 129.691728 217.676538 
L 129.85547 217.676648 
L 130.346696 217.814462 
L 130.510438 218.096244 
L 130.67418 218.08848 
L 130.837922 218.250382 
L 131.001664 218.231524 
L 131.49289 218.833376 
L 132.147858 218.829625 
L 132.802826 218.21283 
L 133.13031 218.293712 
L 133.294052 218.094078 
L 133.785278 218.229778 
L 133.94902 217.667312 
L 134.112762 217.66533 
L 134.276504 217.125573 
L 134.440246 217.356958 
L 135.258956 217.076259 
L 135.422698 216.312113 
L 135.58644 216.224398 
L 136.077666 216.136164 
L 136.241408 215.965044 
L 136.568892 214.86295 
L 136.732634 214.892473 
L 137.22386 214.511472 
L 137.551344 214.629814 
L 137.878828 214.465549 
L 138.533796 214.412295 
L 138.697538 214.363717 
L 139.025022 214.520441 
L 139.843732 214.615694 
L 140.171216 214.649654 
L 140.826184 214.726974 
L 140.989926 214.727483 
L 141.153668 215.289032 
L 141.31741 215.298299 
L 141.972378 215.096776 
L 142.13612 214.756927 
L 142.299862 214.800205 
L 142.95483 214.83689 
L 143.118572 215.875845 
L 143.282314 215.880894 
L 143.446056 216.175453 
L 143.609798 216.785175 
L 144.101024 217.098011 
L 144.264766 218.330528 
L 144.428508 218.321485 
L 144.59225 220.492095 
L 144.755992 221.02617 
L 145.247218 224.888657 
L 145.41096 224.802635 
L 145.574702 224.873556 
L 145.738444 225.193873 
L 145.902186 225.877492 
L 146.393412 225.773401 
L 146.557154 226.268546 
L 146.720896 226.199835 
L 146.884638 229.926036 
L 147.04838 230.212584 
L 147.86709 230.352943 
L 148.030832 232.65699 
L 148.194574 233.04404 
L 149.013284 233.702942 
L 149.177026 233.720685 
L 149.340768 236.541452 
L 149.831994 236.720388 
L 150.159478 237.01573 
L 150.32322 238.901379 
L 150.486962 238.395257 
L 150.978188 238.409774 
L 151.14193 239.334329 
L 151.305672 238.515188 
L 152.124382 238.487967 
L 152.288124 238.788949 
L 152.451866 238.694528 
L 152.615608 239.442389 
L 152.77935 239.063539 
L 153.270576 238.902224 
L 153.434318 241.171304 
L 153.59806 241.34717 
L 153.761802 241.180706 
L 153.925544 240.813973 
L 154.580512 240.846183 
L 154.744254 243.146567 
L 155.071738 243.038842 
L 155.562964 242.093246 
L 155.726706 242.56739 
L 155.890448 242.554801 
L 156.05419 242.411262 
L 156.217932 244.711957 
L 156.709158 244.568861 
L 156.8729 244.23812 
L 157.364126 245.674924 
L 158.019094 245.799371 
L 158.182836 244.756269 
L 158.346578 244.777736 
L 158.51032 244.644345 
L 159.001546 245.782497 
L 159.165288 244.009259 
L 159.32903 244.036757 
L 159.492772 237.827309 
L 159.656514 237.86464 
L 160.638966 215.332268 
L 160.802708 215.321805 
L 161.293935 214.411907 
L 161.621419 214.482524 
L 161.785161 210.873172 
L 161.948903 210.440085 
L 162.440129 210.475483 
L 162.603871 208.730569 
L 162.931355 208.064318 
L 163.095097 208.149702 
L 163.586323 207.1555 
L 163.750065 207.149534 
L 163.913807 208.68427 
L 164.077549 208.530658 
L 164.241291 207.550291 
L 164.896259 207.703136 
L 165.060001 206.279527 
L 165.223743 206.088545 
L 165.387485 204.719511 
L 165.878711 204.857301 
L 166.042453 204.708828 
L 166.533679 203.820522 
L 167.188647 204.049412 
L 167.516131 200.609896 
L 167.679873 201.349871 
L 168.334841 200.273395 
L 168.498583 199.48616 
L 168.662325 199.38676 
L 168.826067 198.265483 
L 169.317293 196.896799 
L 169.481035 196.774348 
L 169.808519 195.632819 
L 169.972261 195.580165 
L 170.463487 193.60796 
L 170.790971 193.554716 
L 170.954713 193.562683 
L 171.118455 193.060076 
L 171.937165 192.12668 
L 172.100907 192.097524 
L 172.264649 191.517494 
L 172.755875 191.25173 
L 172.919617 190.536986 
L 173.083359 190.369401 
L 173.247101 188.472345 
L 173.410843 188.473325 
L 173.902069 187.396864 
L 174.065811 186.139149 
L 174.229553 185.742545 
L 174.557037 185.729042 
L 175.212005 185.567561 
L 175.375747 183.287297 
L 175.539489 183.199243 
L 175.703231 182.83734 
L 176.194457 182.684859 
L 176.358199 183.096441 
L 176.521941 182.627458 
L 176.849425 182.534813 
L 177.340651 181.963693 
L 177.504393 182.271041 
L 177.668135 181.824213 
L 177.995619 181.901597 
L 178.486845 180.563033 
L 178.650587 180.615506 
L 178.814329 178.485331 
L 178.978071 178.73178 
L 179.141813 178.741788 
L 179.796781 178.580288 
L 179.960523 178.594902 
L 180.288007 177.507656 
L 181.270459 176.916909 
L 181.434201 176.901222 
L 181.925427 176.697891 
L 182.089169 175.400397 
L 182.252911 175.412392 
L 182.580395 175.185645 
L 183.235363 175.186508 
L 183.562847 174.771327 
L 184.872783 174.598609 
L 185.364009 174.596249 
L 185.527751 174.479736 
L 186.673945 174.645755 
L 186.837687 174.460619 
L 187.165171 174.588681 
L 188.311365 174.509341 
L 189.293817 175.405794 
L 189.457559 175.091325 
L 191.422463 175.062811 
L 191.749947 174.943479 
L 192.404915 174.948188 
L 192.568657 175.603786 
L 193.551109 175.830939 
L 193.714851 176.193678 
L 193.878593 176.141525 
L 194.042335 176.570752 
L 194.533561 176.634391 
L 194.697303 176.366315 
L 194.861045 176.415144 
L 195.024787 176.272825 
L 195.188529 176.832999 
L 195.679755 176.906418 
L 195.843497 176.476935 
L 196.007239 176.683116 
L 196.334723 177.527385 
L 196.825949 177.53124 
L 196.989691 177.846226 
L 197.480917 177.899437 
L 198.135885 177.624027 
L 198.627111 177.700494 
L 199.282079 177.624722 
L 199.445821 177.452494 
L 199.609563 177.457702 
L 200.264531 177.25112 
L 200.428273 176.805768 
L 200.755757 176.549121 
L 200.919499 176.295198 
L 201.410725 176.294512 
L 201.574467 175.9565 
L 201.738209 176.127075 
L 201.901951 176.115001 
L 202.065693 176.38801 
L 202.720661 176.299501 
L 203.048145 176.130735 
L 204.030597 176.089564 
L 204.194339 176.070839 
L 204.358081 175.784591 
L 205.176791 175.836827 
L 205.504275 176.040893 
L 206.322986 175.926909 
L 206.65047 175.618345 
L 207.141696 175.310266 
L 207.305438 175.532546 
L 207.796664 175.559026 
L 208.615374 175.248057 
L 208.779116 176.063241 
L 208.942858 175.101496 
L 209.597826 175.376619 
L 209.761568 174.576449 
L 210.580278 174.645292 
L 210.74402 174.443213 
L 211.071504 174.913676 
L 211.235246 174.760211 
L 211.890214 174.67046 
L 212.053956 174.93159 
L 212.217698 174.205631 
L 212.872666 173.95711 
L 213.363892 174.274921 
L 213.527634 173.502149 
L 214.01886 173.804039 
L 214.510086 173.715421 
L 215.165054 173.812153 
L 215.328796 174.224641 
L 215.65628 174.230715 
L 215.820022 173.894861 
L 216.47499 173.956288 
L 216.638732 174.286977 
L 216.802474 174.277792 
L 216.966216 174.392005 
L 217.784926 174.216637 
L 217.948668 174.461465 
L 218.11241 173.940682 
L 218.767378 174.007147 
L 218.93112 175.051684 
L 219.094862 174.992444 
L 219.258604 178.290519 
L 219.74983 178.287912 
L 220.077314 189.605074 
L 220.404798 196.706198 
L 220.896024 196.736075 
L 221.059766 197.5149 
L 221.223508 197.708798 
L 221.38725 197.635259 
L 221.550992 201.541296 
L 222.042218 202.0129 
L 222.20596 201.977609 
L 222.369702 203.986459 
L 222.533444 204.123615 
L 222.697186 204.569378 
L 223.188412 204.949573 
L 223.352154 206.351166 
L 223.679638 206.257901 
L 223.84338 206.51874 
L 224.989574 208.919152 
L 225.4808 210.341679 
L 225.808284 210.535414 
L 225.972026 210.382261 
L 226.135768 210.882299 
L 226.626994 210.900875 
L 226.790736 211.114368 
L 226.954478 211.125697 
L 227.281962 215.238955 
L 227.773188 215.26982 
L 227.93693 216.003777 
L 228.100672 216.112667 
L 228.264414 216.929623 
L 228.428156 216.977074 
L 228.919382 218.398271 
L 229.246866 221.223 
L 229.57435 222.374713 
L 230.065576 222.512549 
L 230.229318 224.595003 
L 230.39306 224.489215 
L 230.556802 224.668752 
L 230.720544 224.668874 
L 231.21177 225.154226 
L 231.702996 227.068665 
L 231.866738 226.422932 
L 232.357964 227.150409 
L 232.521706 226.97756 
L 232.685448 227.919581 
L 232.84919 228.130346 
L 233.012932 230.665873 
L 233.831642 230.665762 
L 234.159126 233.666399 
L 234.650352 234.227718 
L 234.814094 234.885767 
L 234.977836 233.563546 
L 235.141578 233.264557 
L 235.30532 233.565638 
L 235.796546 237.015909 
L 235.960288 237.130822 
L 236.287772 237.746185 
L 236.451514 237.745679 
L 236.94274 237.552231 
L 237.106482 238.305559 
L 237.270224 238.299728 
L 237.597708 238.860683 
L 238.088934 238.900485 
L 238.252676 240.148742 
L 238.416418 240.052374 
L 238.58016 242.036855 
L 238.743902 242.042242 
L 239.235128 246.584899 
L 239.562612 246.585589 
L 239.726354 246.821471 
L 240.381322 246.812777 
L 240.708806 248.743015 
L 241.03629 249.461173 
L 241.527516 249.515264 
L 241.855 249.039522 
L 242.018742 249.408724 
L 242.182484 251.45016 
L 243.001194 251.518989 
L 243.164936 251.717887 
L 243.328678 251.338816 
L 243.819904 251.062923 
L 244.147388 249.656974 
L 244.31113 249.703681 
L 244.474872 250.264635 
L 245.621066 250.279863 
L 246.603518 250.319019 
L 246.76726 250.607641 
L 248.40468 250.725265 
L 248.732164 250.734306 
L 248.895906 250.733591 
L 249.059648 250.484142 
L 249.550874 250.265733 
L 249.714616 249.993947 
L 249.878358 250.545176 
L 250.86081 250.468303 
L 251.188295 250.73384 
L 252.007005 250.699806 
L 252.498231 250.225349 
L 252.989457 249.269294 
L 253.153199 249.220428 
L 253.316941 248.808752 
L 254.626877 248.792607 
L 254.790619 249.461871 
L 255.281845 249.552924 
L 255.445587 249.767022 
L 255.773071 249.720716 
L 255.936813 250.566387 
L 256.755523 250.428328 
L 257.083007 250.154991 
L 257.901717 250.160976 
L 258.065459 250.626567 
L 258.884169 250.606618 
L 259.047911 250.276147 
L 259.866621 250.304947 
L 260.030363 250.598907 
L 260.194105 250.221378 
L 260.357847 250.598221 
L 260.521589 251.464603 
L 261.012815 249.998783 
L 261.340299 249.81256 
L 261.504041 249.670229 
L 261.667783 250.09716 
L 262.159009 250.105332 
L 262.322751 249.950219 
L 262.486493 249.950524 
L 262.650235 250.144239 
L 262.813977 250.154698 
L 263.468945 250.602089 
L 263.960171 249.968773 
L 264.451397 249.989868 
L 264.615139 250.122117 
L 264.778881 250.89624 
L 265.106365 250.875635 
L 265.597591 251.031611 
L 265.761333 250.793918 
L 265.925075 250.790874 
L 266.088817 251.101482 
L 266.252559 250.976395 
L 266.743785 251.049097 
L 266.907527 251.785651 
L 267.071269 251.740589 
L 267.235011 252.339938 
L 268.053721 252.251892 
L 268.217463 252.070409 
L 268.381205 252.075196 
L 268.544947 251.704565 
L 269.036173 252.299331 
L 269.199915 252.210237 
L 269.363657 253.510329 
L 269.527399 253.347606 
L 269.691141 253.009889 
L 270.182367 254.399318 
L 270.509851 253.948766 
L 270.673593 253.923751 
L 270.837335 254.127464 
L 271.328561 254.178805 
L 271.492303 254.326385 
L 271.656045 253.950336 
L 271.819787 251.989287 
L 271.983529 252.216089 
L 272.474755 251.759958 
L 272.638497 253.081049 
L 272.802239 252.975244 
L 272.965981 253.715707 
L 273.129723 253.6858 
L 273.784691 253.83776 
L 273.948433 255.521545 
L 274.275917 255.264753 
L 274.930885 255.256646 
L 275.094627 255.56798 
L 275.258369 255.110747 
L 275.422111 255.338297 
L 276.077079 255.380235 
L 276.240821 256.085519 
L 276.404563 256.064096 
L 276.568305 256.189736 
L 277.223273 256.275991 
L 277.714499 257.15631 
L 278.205725 257.094896 
L 278.533209 258.831766 
L 278.696951 258.417038 
L 278.860693 258.497331 
L 279.515661 258.603389 
L 279.679403 259.547314 
L 280.825597 259.39797 
L 280.989339 258.704085 
L 281.644307 258.525255 
L 281.808049 258.622375 
L 282.299275 258.325113 
L 282.790501 258.258077 
L 282.954243 257.645156 
L 283.281727 257.733057 
L 284.100437 257.657034 
L 284.591663 257.77358 
L 285.082889 257.520442 
L 285.246631 258.55826 
L 286.229083 258.603528 
L 286.392825 259.312667 
L 286.556567 258.938001 
L 286.720309 258.962992 
L 286.884051 258.781922 
L 287.866503 258.632997 
L 288.030245 258.951243 
L 288.685213 259.022058 
L 288.848955 259.098257 
L 289.176439 258.695661 
L 289.667665 258.466036 
L 289.831407 258.085486 
L 289.995149 258.087522 
L 290.158891 256.787477 
L 290.322633 257.029454 
L 290.813859 257.138684 
L 290.977601 256.956068 
L 291.141343 256.484529 
L 291.305085 256.537549 
L 291.468827 256.707739 
L 292.123795 256.696193 
L 292.287537 257.530508 
L 292.451279 257.512391 
L 292.615021 258.197857 
L 293.269989 258.192009 
L 293.597473 258.030765 
L 293.761215 258.326103 
L 294.252441 258.629582 
L 294.416183 258.592745 
L 294.579925 258.706875 
L 294.743667 260.009535 
L 294.907409 260.076519 
L 295.562377 260.044668 
L 295.726119 259.966822 
L 295.889861 260.632778 
L 296.54483 260.596044 
L 296.708572 261.668606 
L 297.036056 261.44459 
L 297.199798 261.851547 
L 297.691024 261.864518 
L 298.018508 262.130237 
L 299.164702 262.169423 
L 299.328444 262.08026 
L 299.492186 261.762188 
L 300.147154 261.718272 
L 300.310896 261.335415 
L 300.474638 261.267052 
L 300.63838 261.430215 
L 301.129606 261.418899 
L 301.293348 261.74787 
L 301.45709 261.321804 
L 301.620832 261.546789 
L 301.784574 261.564787 
L 302.439542 261.874223 
L 302.930768 261.948617 
L 303.421994 262.421201 
L 303.91322 264.79832 
L 304.568188 264.836866 
L 304.895672 264.854984 
L 305.059414 264.863967 
L 305.223156 265.005806 
L 306.041866 264.027073 
L 307.024318 264.020287 
L 307.18806 264.062093 
L 307.351802 263.750491 
L 307.515544 262.197216 
L 308.170512 262.094771 
L 308.661738 261.354429 
L 309.152964 259.853172 
L 309.480448 260.443858 
L 309.807932 259.534823 
L 310.299158 259.609153 
L 310.4629 259.283475 
L 310.790384 259.20297 
L 310.954126 259.151885 
L 311.772836 259.131256 
L 312.10032 259.7246 
L 312.591546 259.831641 
L 312.755288 260.991917 
L 312.91903 261.077362 
L 313.082772 261.469484 
L 313.246514 261.465976 
L 313.73774 261.258783 
L 313.901482 260.650195 
L 314.065224 260.888976 
L 315.211418 260.870903 
L 315.37516 260.379494 
L 315.538902 260.417434 
L 316.357612 260.057717 
L 316.521354 260.080774 
L 316.685096 260.296249 
L 317.83129 260.276132 
L 318.486258 260.134759 
L 318.65 260.527287 
L 318.813742 260.549735 
L 318.977484 260.067646 
L 319.632452 259.747084 
L 319.796194 259.83231 
L 319.959936 258.395059 
L 320.123678 258.11817 
L 320.942388 260.578445 
L 321.10613 260.753472 
L 321.92484 260.943796 
L 322.088582 261.213235 
L 322.252324 261.211337 
L 322.416066 261.001146 
L 323.234776 261.074315 
L 323.56226 261.621067 
L 324.053486 261.927282 
L 324.217228 261.635822 
L 325.363422 261.491355 
L 325.527164 261.692738 
L 325.690906 261.445911 
L 326.345874 261.778193 
L 326.673358 261.445728 
L 326.8371 261.683592 
L 327.819552 261.68608 
L 328.147036 261.826052 
L 328.802004 262.64198 
L 328.965746 262.760669 
L 329.129488 263.343709 
L 330.275682 264.372469 
L 330.439424 265.003506 
L 331.258134 265.301788 
L 331.421876 266.023954 
L 331.585618 268.365335 
L 332.076844 268.373775 
L 332.404328 268.987742 
L 332.731812 269.341183 
L 333.550522 269.387275 
L 333.714264 269.310595 
L 334.369232 269.541903 
L 334.532974 269.397384 
L 334.696716 269.492264 
L 334.860458 269.410381 
L 335.0242 269.990605 
L 335.84291 269.950643 
L 336.170394 269.151022 
L 338.135298 269.029058 
L 338.29904 267.524924 
L 338.462782 267.980487 
L 338.954008 267.830475 
L 339.11775 267.482864 
L 339.281492 267.615641 
L 339.445234 267.552692 
L 339.608976 267.177615 
L 340.263944 267.211911 
L 340.427686 267.099399 
L 340.591428 267.164655 
L 340.75517 267.940412 
L 341.246397 267.782925 
L 341.901365 268.214158 
L 342.556333 268.272425 
L 342.720075 269.259033 
L 343.702527 269.282415 
L 343.866269 269.313431 
L 344.030011 269.483998 
L 344.193753 269.420283 
L 344.684979 269.369892 
L 345.176205 269.628191 
L 345.339947 269.529786 
L 346.158657 269.507181 
L 346.322399 269.911478 
L 346.977367 269.881511 
L 347.304851 269.690946 
L 347.468593 268.719749 
L 347.632335 268.528088 
L 348.287303 268.685441 
L 348.451045 268.19762 
L 349.269755 268.265342 
L 349.597239 267.311008 
L 349.760981 265.732585 
L 349.924723 266.744704 
L 350.415949 265.875019 
L 350.743433 265.859835 
L 350.907175 266.468031 
L 351.070917 266.078283 
L 351.562143 265.948097 
L 351.725885 264.737067 
L 351.889627 264.632847 
L 352.217111 264.139665 
L 352.708337 264.178531 
L 352.872079 263.751353 
L 353.199563 263.811849 
L 353.363305 263.466759 
L 354.345757 263.437333 
L 354.509499 264.067229 
L 355.000725 264.585133 
L 355.328209 264.608486 
L 355.655693 264.857657 
L 357.948081 265.082186 
L 358.930533 264.842564 
L 359.585501 265.090717 
L 359.749243 265.094399 
L 359.912985 264.180974 
L 360.076727 264.594706 
L 360.240469 263.717058 
L 360.895437 263.415851 
L 361.222921 261.286022 
L 361.386663 261.238006 
L 363.187825 261.289842 
L 363.351567 260.956099 
L 363.679051 261.232044 
L 364.497761 259.570371 
L 364.661503 258.641207 
L 364.825245 258.398044 
L 365.316471 258.185428 
L 365.643955 258.896495 
L 365.807697 258.682339 
L 365.971439 258.169726 
L 366.790149 258.181146 
L 366.953891 257.516444 
L 367.117633 257.676593 
L 367.608859 259.100372 
L 367.936343 258.072707 
L 368.100085 258.177509 
L 368.263827 257.968078 
L 368.755053 257.643864 
L 368.918795 258.783242 
L 369.082537 258.86349 
L 369.246279 258.599433 
L 369.410021 258.975796 
L 369.901247 259.402485 
L 370.064989 259.089419 
L 370.228731 259.429598 
L 370.392473 259.175462 
L 370.556215 259.222555 
L 371.374925 259.274645 
L 371.538667 259.422805 
L 372.193635 259.436291 
L 372.521119 259.525498 
L 373.339829 259.455137 
L 373.503571 259.571026 
L 373.667313 260.170219 
L 373.831055 260.169282 
L 373.994797 259.497719 
L 374.486023 259.458703 
L 374.649765 258.513441 
L 374.813507 258.58892 
L 374.977249 258.134652 
L 375.140991 258.460938 
L 375.632217 257.975508 
L 375.795959 258.185991 
L 375.959701 257.910107 
L 376.123443 257.956444 
L 376.287185 257.829428 
L 376.942153 257.802943 
L 377.105895 257.156151 
L 377.433379 257.305209 
L 378.088347 256.850858 
L 378.415831 256.915644 
L 379.070799 256.805446 
L 379.398283 257.672261 
L 379.562025 257.656721 
L 379.725767 257.918615 
L 380.380735 259.592055 
L 380.708219 259.822817 
L 380.871961 259.692407 
L 381.526929 259.478916 
L 382.018155 259.459629 
L 382.836865 259.633012 
L 383.164349 258.96475 
L 383.655575 258.955767 
L 383.819317 258.490963 
L 384.146801 258.741152 
L 384.310543 258.236861 
L 384.801769 258.145013 
L 384.965511 258.37003 
L 385.129253 258.368496 
L 385.292995 258.124191 
L 385.456737 258.424553 
L 386.111705 258.46755 
L 386.602932 258.768953 
L 387.749126 258.252014 
L 388.567836 258.236824 
L 388.731578 257.994727 
L 388.89532 258.102762 
L 389.550288 258.02113 
L 389.71403 257.603817 
L 390.041514 257.647302 
L 390.860224 257.51204 
L 391.187708 257.307155 
L 392.17016 257.203187 
L 392.333902 257.208296 
L 392.825128 255.846673 
L 393.316354 255.819335 
L 394.135064 255.800979 
L 394.298806 255.100026 
L 394.462548 255.146297 
L 394.62629 254.770168 
L 395.281258 254.442992 
L 395.445 254.45423 
L 395.608742 254.324524 
L 395.772484 254.761488 
L 396.26371 255.050954 
L 396.754936 254.957762 
L 396.918678 254.603092 
L 397.409904 254.5729 
L 397.573646 254.141799 
L 397.90113 254.06335 
L 398.064872 255.284274 
L 398.556098 255.286195 
L 398.71984 255.405587 
L 398.883582 255.684189 
L 399.047324 255.487849 
L 399.211066 255.560922 
L 399.702292 255.472562 
L 399.866034 255.197893 
L 400.848486 255.260438 
L 401.012228 255.436821 
L 401.17597 255.28931 
L 401.339712 253.946387 
L 401.503454 250.951109 
L 401.99468 246.518197 
L 402.158422 246.103158 
L 402.485906 240.715983 
L 402.649648 240.722088 
L 403.140874 240.571631 
L 403.468358 237.496289 
L 403.6321 237.497447 
L 403.795842 236.985273 
L 404.614552 235.127899 
L 404.942036 235.04437 
L 405.433262 235.089532 
L 405.597004 234.696518 
L 405.924488 234.637996 
L 406.08823 234.064887 
L 406.579456 234.013492 
L 406.743198 233.803176 
L 407.070682 233.995729 
L 407.234424 234.624339 
L 407.72565 233.206907 
L 407.889392 233.215143 
L 408.053134 232.374199 
L 408.216876 232.779161 
L 408.380618 232.301517 
L 409.035586 231.79561 
L 409.36307 232.719105 
L 409.526812 233.765906 
L 410.018038 234.091044 
L 410.18178 234.651232 
L 410.345522 234.595873 
L 410.509264 234.264242 
L 410.673006 234.221644 
L 411.327974 234.775589 
L 411.491716 235.575974 
L 411.655458 235.07127 
L 412.310426 235.24093 
L 413.784104 235.232075 
L 414.111588 235.33311 
L 414.766556 235.109701 
L 414.930298 235.084191 
L 415.257782 234.300862 
L 415.749008 233.77758 
L 415.91275 233.774368 
L 416.076492 233.22723 
L 418.041396 233.264493 
L 418.36888 232.914532 
L 418.532622 232.453877 
L 418.696364 231.487973 
L 419.515074 231.263232 
L 419.678816 231.888028 
L 419.842558 231.037038 
L 420.333784 231.607514 
L 420.661268 231.148507 
L 420.988752 232.107966 
L 421.479978 232.014277 
L 421.64372 231.865453 
L 421.807462 231.513374 
L 422.626172 231.523391 
L 422.953656 231.196236 
L 423.117398 231.238042 
L 423.772366 230.689424 
L 423.936108 231.467487 
L 424.09985 231.247319 
L 424.263592 230.238192 
L 424.427334 230.720523 
L 425.082302 230.870447 
L 425.409786 228.861225 
L 425.573528 227.985162 
L 426.228496 228.402851 
L 426.392238 228.11276 
L 426.55598 228.101702 
L 426.719722 227.701659 
L 427.210948 227.225308 
L 427.37469 226.780043 
L 427.538432 226.916417 
L 427.702174 227.240696 
L 427.865916 226.089929 
L 428.357142 226.463398 
L 428.520884 226.059549 
L 428.684626 226.473583 
L 428.848368 226.500435 
L 429.01211 225.99793 
L 429.503336 225.591088 
L 429.667078 225.623877 
L 429.83082 225.894402 
L 429.994562 225.579516 
L 430.158304 224.936491 
L 430.813272 224.359176 
L 430.977014 223.755587 
L 431.304499 223.715566 
L 431.795725 223.335697 
L 431.959467 223.012898 
L 432.123209 222.984099 
L 432.286951 222.691529 
L 432.941919 222.571677 
L 433.105661 221.431196 
L 433.596887 221.416227 
L 434.088113 221.841142 
L 434.251855 221.610826 
L 434.415597 222.171156 
L 434.579339 222.178117 
L 434.743081 221.944759 
L 435.234307 222.019679 
L 435.398049 222.408447 
L 435.561791 222.360789 
L 435.725533 222.585478 
L 435.889275 222.591492 
L 436.544243 222.771401 
L 436.707985 222.76476 
L 436.871727 223.226562 
L 437.526695 223.237694 
L 437.690437 223.081694 
L 438.017921 223.523448 
L 438.181663 223.471256 
L 438.672889 223.475462 
L 439.000373 223.11533 
L 439.164115 222.818944 
L 439.819083 222.891104 
L 440.146567 222.519299 
L 441.620245 222.939335 
L 442.438955 222.983521 
L 442.602697 222.828588 
L 442.766439 222.996437 
L 443.257665 223.121912 
L 443.421407 222.979458 
L 443.748891 223.250326 
L 443.912633 223.259486 
L 444.403859 223.652279 
L 444.731343 223.187495 
L 445.550053 223.078428 
L 445.713795 222.911556 
L 446.696247 222.818221 
L 446.859989 222.639186 
L 447.351215 222.764048 
L 448.333667 222.762972 
L 448.497409 222.907005 
L 449.316119 222.92728 
L 449.479861 223.229349 
L 449.643603 223.05137 
L 450.298571 223.053594 
L 450.789797 223.296112 
L 451.608507 223.341994 
L 451.772249 223.074328 
L 451.935991 220.229205 
L 452.427217 219.535998 
L 452.590959 219.800476 
L 452.918443 218.932463 
L 453.900895 218.874121 
L 454.064637 219.470197 
L 454.228379 219.00532 
L 455.047089 219.482899 
L 455.210831 219.428369 
L 455.374573 219.557672 
L 456.520767 219.561777 
L 457.175735 219.867412 
L 457.503219 220.280318 
L 459.304381 220.223925 
L 459.631865 220.742228 
L 459.959349 220.701979 
L 460.778059 220.713051 
L 460.941801 220.857214 
L 461.596769 224.1681 
L 461.760511 227.851738 
L 461.924253 228.231495 
L 462.251737 232.808063 
L 462.742963 232.752416 
L 462.906705 232.922864 
L 463.234189 235.878323 
L 463.397931 235.845276 
L 464.052899 236.448322 
L 464.380383 238.402149 
L 464.544125 236.886732 
L 465.035351 236.433638 
L 465.199093 235.911113 
L 465.362835 236.28611 
L 465.690319 236.203989 
L 466.345287 236.922814 
L 466.509029 237.054097 
L 467.327739 236.721692 
L 467.491481 238.36721 
L 467.655223 238.312724 
L 467.818965 238.913402 
L 467.982707 238.779396 
L 468.473933 239.220223 
L 468.637675 239.943738 
L 468.801417 239.943056 
L 469.128901 240.242574 
L 469.620127 240.195775 
L 469.783869 239.785343 
L 470.111353 239.944625 
L 470.275095 240.477962 
L 471.257547 240.493624 
L 471.421289 241.170079 
L 472.076257 241.386783 
L 472.239999 241.396345 
L 472.403741 241.720863 
L 472.567483 241.695431 
L 473.058709 241.757105 
L 473.222451 241.99165 
L 473.549935 241.882448 
L 473.713677 241.878664 
L 474.204903 240.643715 
L 474.368645 240.861972 
L 474.532387 240.56516 
L 474.696129 240.586381 
L 474.859871 241.100441 
L 475.351097 241.43974 
L 475.514839 241.84992 
L 475.678581 241.84779 
L 475.842323 242.442964 
L 477.807228 242.271268 
L 478.134712 242.824046 
L 478.298454 243.388676 
L 478.953422 244.479032 
L 479.117164 244.169339 
L 479.280906 244.33451 
L 479.444648 244.262572 
L 479.935874 245.3207 
L 480.099616 245.271758 
L 480.263358 245.349711 
L 480.590842 246.480809 
L 481.24581 247.509456 
L 481.409552 247.67635 
L 481.573294 248.053656 
L 482.555746 248.147518 
L 483.538198 249.01421 
L 483.70194 248.94468 
L 483.865682 249.461384 
L 484.029424 251.132472 
L 484.848134 251.590861 
L 485.175618 254.241105 
L 485.830586 255.705102 
L 485.994328 255.702157 
L 486.15807 256.114257 
L 486.321812 256.152435 
L 486.813038 257.247784 
L 487.140522 258.355588 
L 487.304264 258.770373 
L 487.468006 258.831489 
L 487.959232 260.45401 
L 488.122974 260.450319 
L 488.286716 261.671392 
L 488.450458 261.729823 
L 488.6142 261.59542 
L 489.105426 262.78345 
L 489.269168 263.523546 
L 489.596652 263.456711 
L 489.760394 264.013531 
L 490.25162 265.078529 
L 490.579104 266.615831 
L 491.561556 267.244475 
L 491.725298 267.845985 
L 491.88904 267.890822 
L 492.052782 268.272484 
L 492.544008 268.296652 
L 492.70775 268.536384 
L 492.871492 269.794105 
L 493.035234 269.678166 
L 493.198976 269.705443 
L 493.853944 269.627612 
L 494.017686 270.108321 
L 494.34517 270.153188 
L 494.836396 271.02819 
L 495.000138 270.98278 
L 495.16388 270.791272 
L 495.491364 270.97471 
L 495.98259 271.002402 
L 496.146332 270.390096 
L 496.310074 270.390673 
L 496.473816 270.555242 
L 497.292526 270.625655 
L 497.783752 270.772252 
L 498.274978 270.805691 
L 498.766204 272.10715 
L 499.421172 272.158298 
L 499.748656 272.713002 
L 499.912398 272.516249 
L 500.567366 272.28095 
L 500.89485 272.383092 
L 501.058592 272.198181 
L 501.222334 272.271307 
L 501.877302 271.789134 
L 502.204786 271.79658 
L 502.368528 272.127514 
L 502.859754 272.239519 
L 503.514722 272.85358 
L 504.16969 272.866716 
L 504.497174 273.74805 
L 504.660916 273.734146 
L 505.152142 273.982833 
L 505.315884 274.292144 
L 505.479626 273.322658 
L 506.298336 273.246523 
L 506.462078 273.268358 
L 506.62582 273.887932 
L 506.953304 273.987189 
L 507.772014 274.032718 
L 508.099498 273.832557 
L 509.245692 273.932635 
L 510.228144 274.524182 
L 510.391886 274.547442 
L 511.374338 274.303099 
L 511.53808 274.912647 
L 512.193048 281.629083 
L 512.684274 284.063592 
L 513.1755 284.058618 
L 513.502984 284.301906 
L 513.830468 283.820158 
L 514.321694 284.764796 
L 514.976662 284.792752 
L 516.614082 284.923807 
L 517.26905 284.946743 
L 517.924018 284.943013 
L 518.08776 285.158286 
L 518.415244 285.147226 
L 519.070212 285.404234 
L 519.233954 285.40091 
L 519.397696 284.43381 
L 519.561438 284.51225 
L 520.052664 284.115573 
L 520.216406 284.135081 
L 520.380148 284.289557 
L 520.54389 283.169779 
L 521.198859 283.173991 
L 521.362601 282.790552 
L 521.526343 282.73406 
L 521.853827 282.855295 
L 523.000021 282.832563 
L 523.982473 282.605867 
L 524.146215 282.620701 
L 525.128667 286.951517 
L 525.292409 287.36034 
L 526.111119 287.448919 
L 526.438603 288.047167 
L 526.929829 288.199647 
L 527.093571 288.603258 
L 527.421055 288.812327 
L 527.584797 289.24575 
L 528.567249 289.612398 
L 529.222217 289.643167 
L 529.385959 289.705469 
L 529.549701 290.559265 
L 529.877185 290.603843 
L 530.532153 290.670633 
L 530.859637 290.82723 
L 531.514605 290.646092 
L 531.842089 290.680033 
L 532.005831 290.708339 
L 532.169573 290.511814 
L 532.824541 290.512211 
L 533.315767 291.178384 
L 533.806993 291.209573 
L 533.970735 293.509977 
L 534.134477 293.554879 
L 534.298219 294.007265 
L 535.280671 294.019792 
L 535.444413 293.748049 
L 536.754349 293.874776 
L 537.245575 293.925433 
L 537.409317 293.670709 
L 537.573059 293.666838 
L 537.736801 293.434794 
L 537.900543 293.490103 
L 538.719253 293.540409 
L 538.882995 294.331885 
L 539.046737 294.218684 
L 539.701705 294.345479 
L 540.029189 294.820695 
L 540.192931 294.50698 
L 541.175383 294.426507 
L 541.339125 294.454272 
L 542.157835 294.453202 
L 542.321577 294.890579 
L 542.485319 294.708065 
L 543.140287 294.554996 
L 543.467771 294.779632 
L 543.631513 294.579675 
L 544.450223 294.699028 
L 544.777707 294.369542 
L 545.432675 294.274872 
L 545.596417 293.96097 
L 546.578869 293.792536 
L 546.906353 294.223041 
L 547.070095 293.604604 
L 547.561321 293.314109 
L 547.725063 292.832675 
L 548.052547 292.837637 
L 548.871257 281.074284 
L 549.034999 280.940959 
L 549.198741 274.910674 
L 549.362483 274.232419 
L 549.853709 273.600343 
L 550.017451 273.667003 
L 550.344935 272.689425 
L 550.508677 272.697187 
L 551.491129 272.531789 
L 551.654871 271.667457 
L 552.146097 271.223811 
L 552.473581 270.118184 
L 552.637323 270.038876 
L 552.801065 270.107027 
L 553.292291 269.716448 
L 553.783517 269.767278 
L 553.947259 268.792033 
L 554.438485 268.803257 
L 554.765969 268.546175 
L 554.929711 268.750787 
L 555.093453 268.763185 
L 555.584679 268.004717 
L 555.748421 268.024016 
L 555.912163 268.597416 
L 556.239647 264.707117 
L 556.894615 261.41275 
L 557.058357 261.525448 
L 557.222099 260.966765 
L 558.204551 258.521934 
L 558.368293 258.396782 
L 558.532035 256.874516 
L 559.023261 256.855638 
L 559.187003 256.075617 
L 559.678229 255.819206 
L 560.496939 255.737187 
L 560.824423 255.533032 
L 561.315649 255.569832 
L 561.479391 255.309206 
L 561.643133 255.398608 
L 561.806875 255.10633 
L 561.970617 255.105026 
L 562.953069 254.708579 
L 563.116811 254.261651 
L 563.771779 254.272999 
L 564.099263 253.804412 
L 564.754231 253.832447 
L 565.081715 253.693909 
L 565.245457 254.734205 
L 566.555394 254.730248 
L 567.210362 254.300498 
L 567.537846 253.718902 
L 567.701588 253.554033 
L 568.356556 253.546051 
L 568.520298 253.389838 
L 570.648944 253.470351 
L 570.812686 253.617267 
L 571.795138 252.883657 
L 571.95888 252.856357 
L 572.122622 252.962551 
L 572.286364 253.201182 
L 572.286364 253.201182 
" clip-path="url(#p31bb2fec1f)" style="fill: none; stroke: #55a868; stroke-width: 1.75; stroke-linecap: round"/>
   </g>
   <g id="patch_8">
    <path d="M 39.65 300.96 
L 39.65 167.432727 
" style="fill: none"/>
   </g>
   <g id="patch_9">
    <path d="M 597.65 300.96 
L 597.65 167.432727 
" style="fill: none"/>
   </g>
   <g id="patch_10">
    <path d="M 39.65 300.96 
L 597.65 300.96 
" style="fill: none"/>
   </g>
   <g id="patch_11">
    <path d="M 39.65 167.432727 
L 597.65 167.432727 
" style="fill: none"/>
   </g>
   <g id="legend_2">
    <g id="line2d_68">
     <path d="M 545.78125 180.531165 
L 555.78125 180.531165 
L 565.78125 180.531165 
" style="fill: none; stroke: #55a868; stroke-width: 1.75; stroke-linecap: round"/>
    </g>
    <g id="text_19">
     <!-- vol -->
     <g style="fill: #262626" transform="translate(573.78125 184.031165)scale(0.1 -0.1)">
      <defs>
       <path id="DejaVuSerif-76" d="M 1581 0 
L 359 2988 
L -19 2988 
L -19 3322 
L 1509 3322 
L 1509 2988 
L 978 2988 
L 1913 703 
L 2847 2988 
L 2350 2988 
L 2350 3322 
L 3597 3322 
L 3597 2988 
L 3225 2988 
L 2003 0 
L 1581 0 
z
" transform="scale(0.015625)"/>
       <path id="DejaVuSerif-6f" d="M 1925 219 
Q 2388 219 2623 584 
Q 2859 950 2859 1663 
Q 2859 2375 2623 2739 
Q 2388 3103 1925 3103 
Q 1463 3103 1227 2739 
Q 991 2375 991 1663 
Q 991 950 1228 584 
Q 1466 219 1925 219 
z
M 1925 -91 
Q 1200 -91 759 389 
Q 319 869 319 1663 
Q 319 2456 758 2934 
Q 1197 3413 1925 3413 
Q 2653 3413 3092 2934 
Q 3531 2456 3531 1663 
Q 3531 869 3092 389 
Q 2653 -91 1925 -91 
z
" transform="scale(0.015625)"/>
       <path id="DejaVuSerif-6c" d="M 1313 331 
L 1856 331 
L 1856 0 
L 184 0 
L 184 331 
L 738 331 
L 738 4531 
L 184 4531 
L 184 4863 
L 1313 4863 
L 1313 331 
z
" transform="scale(0.015625)"/>
      </defs>
      <use xlink:href="#DejaVuSerif-76"/>
      <use xlink:href="#DejaVuSerif-6f" x="56.494141"/>
      <use xlink:href="#DejaVuSerif-6c" x="116.699219"/>
     </g>
    </g>
   </g>
  </g>
 </g>
 <defs>
  <clipPath id="pe8591f30ae">
   <rect x="39.65" y="7.2" width="558" height="133.527273"/>
  </clipPath>
  <clipPath id="p31bb2fec1f">
   <rect x="39.65" y="167.432727" width="558" height="133.527273"/>
  </clipPath>
 </defs>
</svg>
